<?xml version="1.0" encoding="utf-8"?>
<!-- Generator: Adobe Illustrator 18.1.0, SVG Export Plug-In . SVG Version: 6.00 Build 0)  -->
<!DOCTYPE svg PUBLIC "-//W3C//DTD SVG 1.1//EN" "http://www.w3.org/Graphics/SVG/1.1/DTD/svg11.dtd">
<svg version="1.1" id="Layer_1" xmlns="http://www.w3.org/2000/svg" xmlns:xlink="http://www.w3.org/1999/xlink" x="0px" y="0px"
	 viewBox="0 0 200 62.427" enable-background="new 0 0 200 62.427" xml:space="preserve">
<g>
	<g>
		
			<line fill="none" stroke="#969696" stroke-width="0.8989" stroke-miterlimit="10" x1="29.04" y1="31.487" x2="30.54" y2="31.487"/>
		
			<line fill="none" stroke="#969696" stroke-width="0.8989" stroke-miterlimit="10" stroke-dasharray="2.9897,2.9897" x1="33.53" y1="31.487" x2="193.477" y2="31.487"/>
		
			<line fill="none" stroke="#969696" stroke-width="0.8989" stroke-miterlimit="10" x1="194.972" y1="31.487" x2="196.472" y2="31.487"/>
	</g>
</g>
<path fill="none" stroke="#3E79E4" stroke-width="0.8191" stroke-miterlimit="10" d="M29.04,41.085
	c47.207,17.5,89.066-25.517,128.207-20.483c17.736,2.281,35.5,12.141,39.459,12.093"/>
<g>
	<path fill="none" d="M29.04,39.237c47.207,17.5,89.066-25.517,128.207-20.483c17.736,2.281,35.5,12.141,39.459,12.093"/>
	<path fill="#3E79E4" d="M104.787,23.545l2.076-0.796c0.42-0.161,0.807-0.254,1.16-0.28c0.353-0.026,0.676-0.004,0.97,0.066
		s0.558,0.181,0.791,0.328c0.233,0.148,0.437,0.314,0.61,0.499c0.173,0.184,0.321,0.378,0.444,0.581
		c0.123,0.204,0.22,0.397,0.291,0.583c0.146,0.381,0.217,0.776,0.213,1.186c-0.003,0.409-0.09,0.806-0.258,1.188
		c-0.168,0.383-0.423,0.736-0.765,1.06c-0.342,0.324-0.779,0.588-1.312,0.792l-1.941,0.744L104.787,23.545z M107.585,28.429
		l1.017-0.391c0.342-0.131,0.647-0.301,0.918-0.51c0.27-0.21,0.483-0.451,0.643-0.724c0.159-0.273,0.253-0.574,0.28-0.903
		c0.028-0.329-0.028-0.678-0.17-1.048c-0.073-0.19-0.189-0.401-0.349-0.633s-0.368-0.429-0.627-0.593s-0.57-0.269-0.935-0.312
		c-0.363-0.043-0.786,0.027-1.268,0.212l-1.211,0.464L107.585,28.429z"/>
	<path fill="#3E79E4" d="M113.164,20.37l0.735-0.27l4.758,5.039l-0.946,0.349l-1.144-1.258l-2.847,1.046l-0.048,1.696l-0.945,0.348
		L113.164,20.37z M116.012,23.629l-2.125-2.335L113.87,21.3l-0.123,3.162L116.012,23.629z"/>
	<path fill="#3E79E4" d="M117.38,18.851l0.815-0.284l2.101,6.016l-0.815,0.285L117.38,18.851z"/>
	<path fill="#3E79E4" d="M119.907,17.974l0.82-0.271l1.739,5.283l2.778-0.914l0.253,0.77l-3.599,1.185L119.907,17.974z"/>
	<path fill="#3E79E4" d="M126.087,19.83l-3.362-2.805l1.061-0.318l2.469,2.18l0.909-3.196l1.009-0.303l-1.258,4.193l0.782,2.604
		l-0.827,0.248L126.087,19.83z"/>
	<path fill="#3E79E4" d="M133.271,14.946l-2.001,0.455l-0.18-0.789l4.844-1.104l0.18,0.789l-2.001,0.456l1.235,5.423l-0.842,0.192
		L133.271,14.946z"/>
	<path fill="#3E79E4" d="M137.189,13.274l4.059-0.667l0.131,0.8l-3.205,0.526l0.308,1.874l2.984-0.49l0.131,0.799l-2.983,0.491
		l0.331,2.016l3.366-0.554l0.131,0.8l-4.218,0.693L137.189,13.274z"/>
	<path fill="#3E79E4" d="M143.071,12.329l1.284-0.084l2.338,4.68l0.036-0.002l1.686-4.945l1.284-0.085l0.419,6.358l-0.862,0.057
		l-0.344-5.227l-0.019,0.001l-1.802,5.368l-0.574,0.038l-2.491-5.085l-0.018,0.001l0.344,5.227l-0.862,0.057L143.071,12.329z"/>
	<path fill="#3E79E4" d="M151.939,11.953l2.238,0.116c0.407,0.021,0.74,0.094,0.998,0.219s0.458,0.276,0.603,0.455
		c0.144,0.179,0.24,0.376,0.289,0.592s0.068,0.423,0.058,0.62c-0.011,0.198-0.051,0.401-0.122,0.611
		c-0.071,0.209-0.188,0.396-0.349,0.559c-0.162,0.162-0.378,0.293-0.647,0.39c-0.269,0.098-0.607,0.135-1.015,0.114l-1.375-0.072
		l-0.146,2.805l-0.862-0.045L151.939,11.953z M152.656,14.802l1.133,0.06c0.167,0.008,0.334,0.004,0.501-0.015
		c0.166-0.019,0.315-0.061,0.447-0.126c0.133-0.064,0.242-0.163,0.327-0.294c0.084-0.131,0.133-0.304,0.144-0.52
		c0.012-0.216-0.019-0.393-0.089-0.531c-0.071-0.14-0.169-0.248-0.294-0.326c-0.126-0.079-0.27-0.136-0.433-0.172
		c-0.164-0.035-0.329-0.058-0.497-0.066l-1.133-0.059L152.656,14.802z"/>
	<path fill="#3E79E4" d="M157.805,12.374l4.065,0.619l-0.121,0.801l-3.213-0.488l-0.285,1.877l2.989,0.455l-0.121,0.801l-2.99-0.455
		l-0.307,2.02l3.372,0.514l-0.122,0.801l-4.227-0.644L157.805,12.374z"/>
	<path fill="#3E79E4" d="M163.623,13.34l2.186,0.492c0.398,0.09,0.714,0.219,0.947,0.385c0.232,0.166,0.405,0.35,0.517,0.55
		c0.112,0.201,0.174,0.412,0.186,0.633c0.011,0.221-0.005,0.428-0.048,0.621c-0.045,0.199-0.124,0.383-0.235,0.551
		c-0.112,0.169-0.25,0.312-0.416,0.433c-0.165,0.119-0.354,0.209-0.567,0.269c-0.214,0.06-0.44,0.074-0.68,0.045l1.125,3.234
		l-1.054-0.238l-0.962-3.096l-0.939-0.212l-0.618,2.739l-0.843-0.189L163.623,13.34z M163.848,16.268l1.106,0.25
		c0.164,0.036,0.329,0.061,0.496,0.07s0.321-0.006,0.463-0.048s0.266-0.12,0.371-0.234c0.105-0.115,0.183-0.277,0.23-0.488
		c0.047-0.211,0.048-0.391,0.001-0.539c-0.046-0.149-0.124-0.272-0.234-0.371s-0.242-0.18-0.397-0.242s-0.314-0.112-0.479-0.149
		l-1.105-0.25L163.848,16.268z"/>
	<path fill="#3E79E4" d="M171.254,15.241l0.752,0.218l0.847,6.879l-0.968-0.28l-0.176-1.69l-2.913-0.844l-1.044,1.338l-0.968-0.28
		L171.254,15.241z M171.616,19.554l-0.327-3.141l-0.018-0.005l-1.972,2.475L171.616,19.554z"/>
	<path fill="#3E79E4" d="M175.885,17.517l-1.947-0.648l0.256-0.769l4.714,1.569l-0.256,0.769l-1.947-0.648l-1.757,5.277
		l-0.819-0.272L175.885,17.517z"/>
	<path fill="#3E79E4" d="M180.698,18.324l-1.362,3.661c-0.068,0.186-0.115,0.388-0.139,0.606s-0.008,0.434,0.048,0.646
		c0.055,0.213,0.158,0.408,0.31,0.586s0.368,0.319,0.649,0.424s0.537,0.139,0.768,0.104c0.231-0.036,0.438-0.116,0.618-0.241
		s0.334-0.277,0.459-0.458c0.124-0.181,0.222-0.364,0.29-0.55l1.362-3.661l0.81,0.302l-1.409,3.787
		c-0.129,0.349-0.306,0.644-0.529,0.883c-0.225,0.24-0.479,0.426-0.765,0.557c-0.285,0.131-0.589,0.2-0.912,0.208
		s-0.647-0.049-0.974-0.171c-0.326-0.121-0.609-0.29-0.849-0.507c-0.239-0.218-0.425-0.469-0.555-0.754
		c-0.131-0.285-0.202-0.593-0.215-0.92c-0.013-0.328,0.046-0.666,0.176-1.016l1.408-3.787L180.698,18.324z"/>
	<path fill="#3E79E4" d="M186.108,20.371l2.084,0.825c0.379,0.15,0.671,0.326,0.876,0.526c0.204,0.2,0.347,0.408,0.426,0.623
		c0.079,0.216,0.107,0.434,0.085,0.653c-0.023,0.221-0.07,0.423-0.144,0.606c-0.075,0.189-0.181,0.359-0.317,0.509
		c-0.137,0.148-0.296,0.27-0.478,0.362s-0.383,0.151-0.603,0.178c-0.221,0.025-0.446,0.006-0.678-0.061l0.611,3.369l-1.005-0.398
		l-0.472-3.207l-0.896-0.354l-1.034,2.611l-0.803-0.318L186.108,20.371z M185.878,23.3l1.055,0.418
		c0.156,0.062,0.315,0.11,0.479,0.146c0.163,0.035,0.317,0.044,0.464,0.024s0.281-0.078,0.403-0.175s0.224-0.245,0.303-0.446
		s0.107-0.378,0.085-0.532s-0.081-0.289-0.174-0.403c-0.094-0.114-0.212-0.215-0.355-0.301s-0.294-0.159-0.45-0.222l-1.054-0.417
		L185.878,23.3z"/>
	<path fill="#3E79E4" d="M191.237,22.418l3.836,1.485l-0.293,0.756l-3.029-1.174l-0.686,1.771l2.819,1.092l-0.292,0.755l-2.82-1.092
		l-0.737,1.905l3.181,1.231l-0.293,0.756l-3.986-1.544L191.237,22.418z"/>
</g>
<line fill="none" stroke="#969696" stroke-width="0.5" stroke-miterlimit="10" x1="29.04" y1="3.355" x2="29.04" y2="59.619"/>
<line fill="none" stroke="#969696" stroke-width="0.5" stroke-miterlimit="10" x1="196.472" y1="3.023" x2="196.472" y2="59.287"/>
<g>
	<g>
		<path d="M5.642,30.875c0-0.463,0.042-0.932,0.126-1.408s0.234-0.909,0.451-1.298c0.216-0.389,0.512-0.706,0.886-0.952
			c0.374-0.245,0.851-0.368,1.43-0.368s1.056,0.123,1.43,0.368c0.374,0.246,0.67,0.563,0.886,0.952
			c0.217,0.389,0.367,0.821,0.451,1.298s0.127,0.945,0.127,1.408c0,0.462-0.043,0.931-0.127,1.407
			c-0.084,0.478-0.234,0.91-0.451,1.298c-0.216,0.39-0.512,0.706-0.886,0.952C9.59,34.777,9.113,34.9,8.534,34.9
			s-1.056-0.123-1.43-0.368c-0.374-0.246-0.67-0.562-0.886-0.952c-0.217-0.388-0.367-0.82-0.451-1.298
			C5.684,31.805,5.642,31.337,5.642,30.875z M7.291,30.875c0,0.205,0.01,0.45,0.027,0.736c0.019,0.286,0.068,0.562,0.149,0.825
			c0.08,0.264,0.203,0.488,0.368,0.671c0.165,0.184,0.397,0.275,0.698,0.275c0.293,0,0.524-0.092,0.693-0.275
			c0.168-0.183,0.293-0.407,0.374-0.671c0.08-0.264,0.13-0.539,0.148-0.825c0.018-0.286,0.027-0.531,0.027-0.736
			c0-0.206-0.01-0.451-0.027-0.737c-0.019-0.286-0.068-0.562-0.148-0.825c-0.081-0.264-0.206-0.487-0.374-0.671
			c-0.169-0.184-0.4-0.275-0.693-0.275c-0.301,0-0.533,0.092-0.698,0.275s-0.288,0.407-0.368,0.671
			c-0.081,0.264-0.131,0.539-0.149,0.825C7.301,30.424,7.291,30.669,7.291,30.875z"/>
		<path d="M13.99,30.633c-0.265,0-0.51-0.05-0.737-0.148c-0.228-0.1-0.427-0.235-0.6-0.407c-0.172-0.172-0.308-0.372-0.407-0.6
			c-0.099-0.228-0.148-0.473-0.148-0.737c0-0.264,0.05-0.51,0.148-0.736c0.1-0.228,0.235-0.428,0.407-0.6
			c0.173-0.173,0.372-0.309,0.6-0.407s0.473-0.148,0.737-0.148c0.264,0,0.51,0.05,0.736,0.148c0.228,0.099,0.428,0.234,0.6,0.407
			c0.173,0.172,0.309,0.372,0.407,0.6c0.1,0.227,0.148,0.473,0.148,0.736c0,0.265-0.049,0.51-0.148,0.737
			c-0.099,0.228-0.234,0.428-0.407,0.6c-0.172,0.172-0.372,0.308-0.6,0.407C14.5,30.583,14.254,30.633,13.99,30.633z M13.99,29.709
			c0.271,0,0.5-0.094,0.688-0.281c0.187-0.187,0.28-0.416,0.28-0.688c0-0.271-0.094-0.5-0.28-0.688
			c-0.188-0.187-0.416-0.28-0.688-0.28s-0.501,0.094-0.688,0.28c-0.188,0.188-0.28,0.417-0.28,0.688c0,0.271,0.093,0.501,0.28,0.688
			C13.489,29.615,13.719,29.709,13.99,29.709z"/>
		<path d="M22.075,29.005c-0.169-0.205-0.376-0.363-0.621-0.474c-0.246-0.109-0.53-0.165-0.853-0.165
			c-0.323,0-0.622,0.062-0.896,0.188c-0.275,0.125-0.514,0.299-0.715,0.522c-0.202,0.224-0.359,0.489-0.474,0.798
			c-0.113,0.308-0.17,0.642-0.17,1.001c0,0.366,0.057,0.702,0.17,1.006c0.114,0.305,0.27,0.568,0.468,0.792s0.431,0.398,0.698,0.522
			c0.268,0.125,0.556,0.188,0.864,0.188c0.352,0,0.663-0.073,0.935-0.221c0.271-0.146,0.495-0.352,0.671-0.615l1.43,1.066
			c-0.33,0.462-0.748,0.804-1.254,1.023s-1.026,0.33-1.562,0.33c-0.609,0-1.17-0.096-1.684-0.286
			c-0.513-0.19-0.957-0.464-1.331-0.819c-0.373-0.355-0.665-0.787-0.874-1.293s-0.313-1.07-0.313-1.693
			c0-0.624,0.104-1.188,0.313-1.694s0.501-0.937,0.874-1.293c0.374-0.355,0.818-0.628,1.331-0.819
			c0.514-0.19,1.074-0.286,1.684-0.286c0.22,0,0.449,0.021,0.688,0.061c0.238,0.041,0.473,0.104,0.704,0.192
			c0.23,0.089,0.452,0.206,0.665,0.353s0.403,0.326,0.572,0.539L22.075,29.005z"/>
	</g>
</g>
</svg>
