<?xml version="1.0" encoding="utf-8"?>
<!-- Generator: Adobe Illustrator 18.1.0, SVG Export Plug-In . SVG Version: 6.00 Build 0)  -->
<!DOCTYPE svg PUBLIC "-//W3C//DTD SVG 1.1//EN" "http://www.w3.org/Graphics/SVG/1.1/DTD/svg11.dtd">
<svg version="1.1" id="Layer_1" xmlns="http://www.w3.org/2000/svg" xmlns:xlink="http://www.w3.org/1999/xlink" x="0px" y="0px"
	 viewBox="0 0 200 48.36" enable-background="new 0 0 200 48.36" xml:space="preserve">
<rect x="-0.023" y="6.408" fill="#8C8A85" width="59.851" height="14.316"/>
<rect x="144.194" y="6.408" fill="#8C8A85" width="55.806" height="14.316"/>
<rect x="53.731" y="6.408" fill="#69BD7F" width="90.463" height="14.316"/>
<g>
	<path fill="#FFFFFF" d="M64.734,16.2c-0.368,0.192-0.752,0.331-1.152,0.416c-0.399,0.086-0.808,0.128-1.224,0.128
		c-0.443,0-0.851-0.069-1.225-0.208c-0.373-0.138-0.695-0.337-0.968-0.596c-0.271-0.259-0.483-0.572-0.636-0.939
		c-0.152-0.368-0.228-0.778-0.228-1.232c0-0.453,0.075-0.864,0.228-1.232s0.364-0.681,0.636-0.94
		c0.272-0.259,0.595-0.458,0.968-0.596c0.374-0.139,0.781-0.208,1.225-0.208c0.453,0,0.87,0.055,1.252,0.164
		c0.381,0.109,0.716,0.297,1.004,0.564l-0.88,0.96c-0.171-0.176-0.363-0.309-0.576-0.4s-0.479-0.136-0.8-0.136
		c-0.267,0-0.508,0.045-0.725,0.136c-0.216,0.091-0.401,0.217-0.556,0.38c-0.154,0.163-0.273,0.356-0.355,0.58
		c-0.083,0.224-0.124,0.467-0.124,0.728c0,0.267,0.041,0.511,0.124,0.731c0.082,0.222,0.201,0.414,0.355,0.576
		c0.154,0.163,0.34,0.29,0.556,0.381c0.217,0.09,0.458,0.136,0.725,0.136c0.271,0,0.507-0.031,0.704-0.092
		c0.197-0.062,0.354-0.124,0.472-0.188v-0.92h-1.016v-1.152h2.216V16.2z"/>
	<path fill="#FFFFFF" d="M66.03,10.936h2.191c0.288,0,0.562,0.028,0.82,0.084s0.485,0.149,0.68,0.28
		c0.195,0.13,0.35,0.307,0.465,0.528c0.114,0.221,0.172,0.498,0.172,0.828c0,0.4-0.104,0.74-0.312,1.02s-0.512,0.457-0.912,0.532
		l1.44,2.392h-1.496l-1.184-2.265h-0.616V16.6H66.03V10.936z M67.278,13.281h0.735c0.112,0,0.231-0.004,0.356-0.012
		s0.238-0.032,0.34-0.072s0.186-0.103,0.252-0.188c0.066-0.085,0.101-0.206,0.101-0.36c0-0.144-0.029-0.258-0.089-0.344
		c-0.059-0.085-0.133-0.151-0.224-0.196c-0.091-0.045-0.194-0.076-0.312-0.092c-0.118-0.016-0.232-0.024-0.345-0.024h-0.815V13.281z
		"/>
	<path fill="#FFFFFF" d="M71.11,13.768c0-0.453,0.075-0.864,0.228-1.232s0.364-0.681,0.636-0.94
		c0.272-0.259,0.595-0.458,0.968-0.596c0.374-0.139,0.781-0.208,1.225-0.208c0.442,0,0.851,0.069,1.224,0.208
		s0.696,0.337,0.968,0.596c0.272,0.259,0.484,0.572,0.637,0.94c0.151,0.368,0.228,0.779,0.228,1.232
		c0,0.454-0.076,0.864-0.228,1.232c-0.152,0.367-0.364,0.681-0.637,0.939c-0.271,0.259-0.595,0.458-0.968,0.596
		c-0.373,0.139-0.781,0.208-1.224,0.208c-0.443,0-0.851-0.069-1.225-0.208c-0.373-0.138-0.695-0.337-0.968-0.596
		c-0.271-0.259-0.483-0.572-0.636-0.939C71.186,14.633,71.11,14.222,71.11,13.768z M72.406,13.768c0,0.267,0.041,0.511,0.124,0.731
		c0.082,0.222,0.201,0.414,0.355,0.576c0.154,0.163,0.34,0.29,0.556,0.381c0.217,0.09,0.458,0.136,0.725,0.136
		s0.508-0.046,0.724-0.136c0.216-0.091,0.401-0.218,0.557-0.381c0.154-0.162,0.272-0.354,0.355-0.576
		c0.083-0.221,0.124-0.465,0.124-0.731c0-0.261-0.041-0.504-0.124-0.728s-0.201-0.417-0.355-0.58
		c-0.155-0.163-0.341-0.289-0.557-0.38s-0.457-0.136-0.724-0.136s-0.508,0.045-0.725,0.136c-0.216,0.091-0.401,0.217-0.556,0.38
		c-0.154,0.163-0.273,0.356-0.355,0.58C72.447,13.264,72.406,13.507,72.406,13.768z"/>
	<path fill="#FFFFFF" d="M77.679,10.936h1.359l0.904,3.632h0.016l1.185-3.632h1.16l1.176,3.729h0.016l0.952-3.729h1.264L84.055,16.6
		h-1.112l-1.248-3.92h-0.016l-1.248,3.92h-1.072L77.679,10.936z"/>
	<path fill="#FFFFFF" d="M86.454,10.936h1.248V16.6h-1.248V10.936z"/>
	<path fill="#FFFFFF" d="M89.038,10.936h1.696l2.407,3.937h0.017v-3.937h1.248V16.6h-1.633l-2.472-4.032h-0.016V16.6h-1.248V10.936z
		"/>
	<path fill="#FFFFFF" d="M100.886,16.2c-0.368,0.192-0.752,0.331-1.152,0.416c-0.399,0.086-0.808,0.128-1.224,0.128
		c-0.443,0-0.851-0.069-1.225-0.208c-0.373-0.138-0.695-0.337-0.968-0.596c-0.271-0.259-0.483-0.572-0.636-0.939
		c-0.152-0.368-0.228-0.778-0.228-1.232c0-0.453,0.075-0.864,0.228-1.232s0.364-0.681,0.636-0.94
		c0.272-0.259,0.595-0.458,0.968-0.596c0.374-0.139,0.781-0.208,1.225-0.208c0.453,0,0.87,0.055,1.252,0.164
		c0.381,0.109,0.716,0.297,1.004,0.564l-0.88,0.96c-0.171-0.176-0.363-0.309-0.576-0.4s-0.479-0.136-0.8-0.136
		c-0.267,0-0.508,0.045-0.725,0.136c-0.216,0.091-0.401,0.217-0.556,0.38c-0.154,0.163-0.273,0.356-0.355,0.58
		c-0.083,0.224-0.124,0.467-0.124,0.728c0,0.267,0.041,0.511,0.124,0.731c0.082,0.222,0.201,0.414,0.355,0.576
		c0.154,0.163,0.34,0.29,0.556,0.381c0.217,0.09,0.458,0.136,0.725,0.136c0.271,0,0.507-0.031,0.704-0.092
		c0.197-0.062,0.354-0.124,0.472-0.188v-0.92H98.67v-1.152h2.216V16.2z"/>
	<path fill="#FFFFFF" d="M107.55,12.321c-0.102-0.128-0.238-0.223-0.412-0.284c-0.173-0.062-0.337-0.092-0.492-0.092
		c-0.091,0-0.184,0.011-0.279,0.032c-0.097,0.021-0.188,0.055-0.272,0.1s-0.154,0.105-0.208,0.18
		c-0.054,0.075-0.08,0.166-0.08,0.272c0,0.17,0.064,0.301,0.192,0.392c0.128,0.091,0.289,0.168,0.483,0.232
		c0.195,0.064,0.404,0.128,0.628,0.192c0.225,0.064,0.434,0.155,0.629,0.272c0.194,0.118,0.355,0.274,0.483,0.471
		c0.128,0.198,0.192,0.462,0.192,0.793c0,0.314-0.059,0.589-0.176,0.823c-0.118,0.235-0.276,0.43-0.477,0.585
		c-0.2,0.154-0.432,0.269-0.696,0.344c-0.264,0.074-0.542,0.111-0.836,0.111c-0.367,0-0.709-0.056-1.023-0.168
		c-0.315-0.111-0.608-0.293-0.88-0.544l0.888-0.976c0.128,0.171,0.289,0.303,0.484,0.396c0.194,0.094,0.396,0.141,0.604,0.141
		c0.102,0,0.204-0.012,0.308-0.036c0.104-0.024,0.197-0.06,0.28-0.108c0.083-0.048,0.149-0.109,0.2-0.184s0.076-0.163,0.076-0.264
		c0-0.171-0.065-0.306-0.196-0.404s-0.295-0.183-0.492-0.252s-0.41-0.139-0.64-0.208s-0.442-0.162-0.64-0.28
		c-0.198-0.117-0.361-0.272-0.492-0.464s-0.196-0.445-0.196-0.76c0-0.304,0.061-0.571,0.18-0.8c0.12-0.229,0.28-0.421,0.48-0.576
		c0.2-0.154,0.431-0.271,0.692-0.348c0.261-0.077,0.53-0.116,0.808-0.116c0.32,0,0.629,0.045,0.928,0.136s0.568,0.243,0.809,0.456
		L107.55,12.321z"/>
	<path fill="#FFFFFF" d="M109.59,10.936h3.848v1.152h-2.6v1.056h2.456v1.152h-2.456v1.151h2.744V16.6h-3.992V10.936z"/>
	<path fill="#FFFFFF" d="M116.646,10.936h1.031l2.464,5.664h-1.407l-0.488-1.2h-2.2l-0.472,1.2h-1.376L116.646,10.936z
		 M117.126,12.584l-0.688,1.76h1.384L117.126,12.584z"/>
	<path fill="#FFFFFF" d="M123.71,12.321c-0.102-0.128-0.238-0.223-0.412-0.284c-0.173-0.062-0.337-0.092-0.492-0.092
		c-0.091,0-0.184,0.011-0.279,0.032c-0.097,0.021-0.188,0.055-0.272,0.1s-0.154,0.105-0.208,0.18
		c-0.054,0.075-0.08,0.166-0.08,0.272c0,0.17,0.064,0.301,0.192,0.392c0.128,0.091,0.289,0.168,0.483,0.232
		c0.195,0.064,0.404,0.128,0.628,0.192c0.225,0.064,0.434,0.155,0.629,0.272c0.194,0.118,0.355,0.274,0.483,0.471
		c0.128,0.198,0.192,0.462,0.192,0.793c0,0.314-0.059,0.589-0.176,0.823c-0.118,0.235-0.276,0.43-0.477,0.585
		c-0.2,0.154-0.432,0.269-0.696,0.344c-0.264,0.074-0.542,0.111-0.836,0.111c-0.367,0-0.709-0.056-1.023-0.168
		c-0.315-0.111-0.608-0.293-0.88-0.544l0.888-0.976c0.128,0.171,0.289,0.303,0.484,0.396c0.194,0.094,0.396,0.141,0.604,0.141
		c0.102,0,0.204-0.012,0.308-0.036c0.104-0.024,0.197-0.06,0.28-0.108c0.083-0.048,0.149-0.109,0.2-0.184s0.076-0.163,0.076-0.264
		c0-0.171-0.065-0.306-0.196-0.404s-0.295-0.183-0.492-0.252s-0.41-0.139-0.64-0.208s-0.442-0.162-0.64-0.28
		c-0.198-0.117-0.361-0.272-0.492-0.464s-0.196-0.445-0.196-0.76c0-0.304,0.061-0.571,0.18-0.8c0.12-0.229,0.28-0.421,0.48-0.576
		c0.2-0.154,0.431-0.271,0.692-0.348c0.261-0.077,0.53-0.116,0.808-0.116c0.32,0,0.629,0.045,0.928,0.136s0.568,0.243,0.809,0.456
		L123.71,12.321z"/>
	<path fill="#FFFFFF" d="M125.398,13.768c0-0.453,0.075-0.864,0.228-1.232s0.364-0.681,0.636-0.94
		c0.272-0.259,0.595-0.458,0.968-0.596c0.374-0.139,0.781-0.208,1.225-0.208c0.442,0,0.851,0.069,1.224,0.208
		s0.696,0.337,0.968,0.596c0.272,0.259,0.484,0.572,0.637,0.94c0.151,0.368,0.228,0.779,0.228,1.232
		c0,0.454-0.076,0.864-0.228,1.232c-0.152,0.367-0.364,0.681-0.637,0.939c-0.271,0.259-0.595,0.458-0.968,0.596
		c-0.373,0.139-0.781,0.208-1.224,0.208c-0.443,0-0.851-0.069-1.225-0.208c-0.373-0.138-0.695-0.337-0.968-0.596
		c-0.271-0.259-0.483-0.572-0.636-0.939C125.474,14.633,125.398,14.222,125.398,13.768z M126.694,13.768
		c0,0.267,0.041,0.511,0.124,0.731c0.082,0.222,0.201,0.414,0.355,0.576c0.154,0.163,0.34,0.29,0.556,0.381
		c0.217,0.09,0.458,0.136,0.725,0.136s0.508-0.046,0.724-0.136c0.216-0.091,0.401-0.218,0.557-0.381
		c0.154-0.162,0.272-0.354,0.355-0.576c0.083-0.221,0.124-0.465,0.124-0.731c0-0.261-0.041-0.504-0.124-0.728
		s-0.201-0.417-0.355-0.58c-0.155-0.163-0.341-0.289-0.557-0.38s-0.457-0.136-0.724-0.136s-0.508,0.045-0.725,0.136
		c-0.216,0.091-0.401,0.217-0.556,0.38c-0.154,0.163-0.273,0.356-0.355,0.58C126.735,13.264,126.694,13.507,126.694,13.768z"/>
	<path fill="#FFFFFF" d="M132.558,10.936h1.696l2.407,3.937h0.017v-3.937h1.248V16.6h-1.633l-2.472-4.032h-0.016V16.6h-1.248V10.936
		z"/>
</g>
<g>
	<g>
		<path d="M37.968,31.488c0.088-0.022,0.176-0.04,0.264-0.055s0.18-0.022,0.275-0.022c0.366,0,0.7,0.066,1.001,0.198
			s0.557,0.312,0.77,0.539c0.213,0.228,0.378,0.497,0.495,0.809s0.176,0.644,0.176,0.995c0,0.403-0.075,0.769-0.226,1.095
			s-0.355,0.606-0.615,0.841c-0.261,0.235-0.568,0.417-0.925,0.545c-0.355,0.128-0.734,0.192-1.138,0.192
			c-0.411,0-0.792-0.064-1.145-0.192c-0.352-0.128-0.658-0.31-0.918-0.545c-0.261-0.234-0.466-0.515-0.616-0.841
			s-0.226-0.691-0.226-1.095c0-0.278,0.025-0.533,0.077-0.765c0.051-0.23,0.119-0.449,0.203-0.654s0.184-0.401,0.297-0.589
			c0.114-0.187,0.233-0.379,0.357-0.577l1.705-2.662h2.014L37.968,31.488z M39.299,33.885c0-0.352-0.116-0.644-0.347-0.874
			c-0.231-0.231-0.533-0.347-0.907-0.347s-0.677,0.115-0.908,0.347c-0.23,0.23-0.346,0.522-0.346,0.874
			c0,0.353,0.115,0.644,0.346,0.875c0.231,0.23,0.534,0.347,0.908,0.347s0.676-0.116,0.907-0.347
			C39.183,34.529,39.299,34.238,39.299,33.885z"/>
		<path d="M46.471,28.704h2.574c0.623,0,1.215,0.07,1.776,0.209c0.561,0.14,1.051,0.365,1.469,0.677s0.749,0.717,0.995,1.216
			c0.246,0.498,0.368,1.104,0.368,1.814c0,0.631-0.119,1.187-0.357,1.667c-0.238,0.479-0.559,0.884-0.962,1.21
			s-0.869,0.573-1.397,0.742c-0.527,0.169-1.082,0.253-1.661,0.253h-2.805V28.704z M48.187,34.909h0.892
			c0.396,0,0.764-0.04,1.105-0.121c0.341-0.08,0.636-0.215,0.885-0.401c0.25-0.188,0.446-0.433,0.589-0.737
			c0.143-0.304,0.215-0.676,0.215-1.116c0-0.381-0.072-0.713-0.215-0.995s-0.336-0.516-0.577-0.699
			c-0.242-0.183-0.526-0.32-0.853-0.412c-0.327-0.092-0.67-0.138-1.029-0.138h-1.012V34.909z"/>
		<path d="M57.933,28.704h1.419l3.388,7.788h-1.937l-0.671-1.65h-3.024l-0.649,1.65h-1.892L57.933,28.704z M58.592,30.97
			l-0.945,2.421h1.902L58.592,30.97z"/>
		<path d="M65.171,33.17l-2.926-4.466h2.134l1.65,2.915l1.749-2.915h2.034l-2.926,4.466v3.322h-1.716V33.17z"/>
		<path d="M74.784,30.608c-0.139-0.176-0.328-0.307-0.566-0.391s-0.464-0.127-0.676-0.127c-0.125,0-0.253,0.015-0.386,0.044
			c-0.132,0.03-0.257,0.075-0.374,0.138s-0.213,0.146-0.286,0.248s-0.109,0.227-0.109,0.374c0,0.234,0.088,0.414,0.264,0.539
			c0.176,0.124,0.397,0.23,0.666,0.318c0.268,0.088,0.555,0.176,0.863,0.265c0.308,0.088,0.596,0.212,0.863,0.374
			c0.268,0.161,0.489,0.377,0.666,0.648c0.176,0.271,0.264,0.635,0.264,1.089c0,0.433-0.081,0.811-0.242,1.133
			c-0.161,0.323-0.379,0.591-0.654,0.804s-0.594,0.37-0.957,0.473s-0.746,0.154-1.149,0.154c-0.506,0-0.976-0.077-1.408-0.231
			c-0.433-0.153-0.836-0.403-1.21-0.748l1.221-1.342c0.177,0.234,0.398,0.416,0.666,0.545c0.268,0.128,0.544,0.192,0.83,0.192
			c0.14,0,0.28-0.017,0.424-0.05c0.143-0.033,0.271-0.082,0.385-0.148s0.205-0.15,0.275-0.253c0.069-0.103,0.104-0.224,0.104-0.363
			c0-0.234-0.09-0.42-0.27-0.556c-0.18-0.135-0.405-0.251-0.677-0.346c-0.271-0.096-0.564-0.191-0.88-0.286
			c-0.315-0.096-0.608-0.224-0.88-0.386c-0.271-0.161-0.497-0.374-0.677-0.638c-0.18-0.264-0.27-0.612-0.27-1.045
			c0-0.418,0.083-0.784,0.248-1.1c0.164-0.315,0.385-0.579,0.659-0.792c0.275-0.213,0.593-0.372,0.952-0.479s0.729-0.16,1.11-0.16
			c0.44,0,0.865,0.062,1.276,0.188c0.41,0.125,0.781,0.334,1.111,0.627L74.784,30.608z"/>
		<path d="M40.669,43.466h2.32v-2.32h1.387v2.32h2.32v1.387h-2.32v2.32h-1.387v-2.32h-2.32V43.466z"/>
		<path d="M53.582,41.157h-3.091l-0.032,1.199c0.168-0.059,0.399-0.088,0.692-0.088c0.396,0,0.759,0.059,1.089,0.176
			s0.614,0.288,0.853,0.512s0.424,0.494,0.556,0.813s0.198,0.677,0.198,1.072c0,0.44-0.075,0.833-0.226,1.178
			s-0.357,0.636-0.622,0.874c-0.264,0.238-0.577,0.42-0.94,0.545c-0.362,0.124-0.757,0.187-1.182,0.187
			c-0.675,0-1.24-0.165-1.694-0.495c-0.455-0.33-0.767-0.828-0.936-1.496l1.728-0.396c0.044,0.278,0.161,0.504,0.352,0.677
			c0.191,0.172,0.43,0.258,0.716,0.258c0.352,0,0.632-0.109,0.841-0.33c0.209-0.22,0.313-0.498,0.313-0.836
			c0-0.256-0.053-0.467-0.159-0.632s-0.246-0.297-0.418-0.396c-0.173-0.099-0.365-0.167-0.577-0.203
			c-0.213-0.037-0.426-0.056-0.639-0.056c-0.271,0-0.544,0.026-0.819,0.077c-0.275,0.052-0.541,0.121-0.798,0.209l0.088-4.301h4.708
			V41.157z"/>
		<path d="M57.157,43.357c-0.265,0-0.51-0.05-0.737-0.148c-0.228-0.1-0.427-0.235-0.6-0.407c-0.172-0.172-0.308-0.372-0.407-0.6
			c-0.099-0.228-0.148-0.473-0.148-0.737c0-0.264,0.05-0.51,0.148-0.736c0.1-0.228,0.235-0.428,0.407-0.6
			c0.173-0.173,0.372-0.309,0.6-0.407s0.473-0.148,0.737-0.148c0.264,0,0.51,0.05,0.736,0.148c0.228,0.099,0.428,0.234,0.6,0.407
			c0.173,0.172,0.309,0.372,0.407,0.6c0.1,0.227,0.148,0.473,0.148,0.736c0,0.265-0.049,0.51-0.148,0.737
			c-0.099,0.228-0.234,0.428-0.407,0.6c-0.172,0.172-0.372,0.308-0.6,0.407C57.667,43.307,57.421,43.357,57.157,43.357z
			 M57.157,42.433c0.271,0,0.5-0.094,0.688-0.281c0.187-0.187,0.28-0.416,0.28-0.688c0-0.271-0.094-0.5-0.28-0.688
			c-0.188-0.187-0.416-0.28-0.688-0.28s-0.501,0.094-0.688,0.28c-0.188,0.188-0.28,0.417-0.28,0.688c0,0.271,0.093,0.501,0.28,0.688
			C56.656,42.339,56.886,42.433,57.157,42.433z"/>
		<path d="M65.792,41.729c-0.169-0.205-0.376-0.363-0.621-0.474c-0.246-0.109-0.53-0.165-0.853-0.165
			c-0.323,0-0.622,0.062-0.896,0.188c-0.275,0.125-0.514,0.299-0.715,0.522c-0.202,0.224-0.359,0.489-0.474,0.798
			c-0.113,0.308-0.17,0.642-0.17,1.001c0,0.366,0.057,0.702,0.17,1.006c0.114,0.305,0.27,0.568,0.468,0.792s0.431,0.398,0.698,0.522
			c0.268,0.125,0.556,0.188,0.864,0.188c0.352,0,0.663-0.073,0.935-0.221c0.271-0.146,0.495-0.352,0.671-0.615l1.43,1.066
			c-0.33,0.462-0.748,0.804-1.254,1.023s-1.026,0.33-1.562,0.33c-0.609,0-1.17-0.096-1.684-0.286
			c-0.513-0.19-0.957-0.464-1.331-0.819c-0.373-0.355-0.665-0.787-0.874-1.293s-0.313-1.07-0.313-1.693
			c0-0.624,0.104-1.188,0.313-1.694s0.501-0.937,0.874-1.293c0.374-0.355,0.818-0.628,1.331-0.819
			c0.514-0.19,1.074-0.286,1.684-0.286c0.22,0,0.449,0.021,0.688,0.061c0.238,0.041,0.473,0.104,0.704,0.192
			c0.23,0.089,0.452,0.206,0.665,0.353s0.403,0.326,0.572,0.539L65.792,41.729z"/>
	</g>
</g>
<g>
	<g>
		<path d="M126.527,31.488c0.088-0.022,0.176-0.04,0.264-0.055s0.18-0.022,0.275-0.022c0.366,0,0.7,0.066,1.001,0.198
			s0.557,0.312,0.77,0.539c0.213,0.228,0.378,0.497,0.495,0.809s0.176,0.644,0.176,0.995c0,0.403-0.075,0.769-0.226,1.095
			s-0.355,0.606-0.615,0.841c-0.261,0.235-0.568,0.417-0.925,0.545c-0.355,0.128-0.734,0.192-1.138,0.192
			c-0.411,0-0.792-0.064-1.145-0.192c-0.352-0.128-0.658-0.31-0.918-0.545c-0.261-0.234-0.466-0.515-0.616-0.841
			s-0.226-0.691-0.226-1.095c0-0.278,0.025-0.533,0.077-0.765c0.051-0.23,0.119-0.449,0.203-0.654s0.184-0.401,0.297-0.589
			c0.114-0.187,0.233-0.379,0.357-0.577l1.705-2.662h2.014L126.527,31.488z M127.858,33.885c0-0.352-0.116-0.644-0.347-0.874
			c-0.231-0.231-0.533-0.347-0.907-0.347s-0.677,0.115-0.908,0.347c-0.23,0.23-0.346,0.522-0.346,0.874
			c0,0.353,0.115,0.644,0.346,0.875c0.231,0.23,0.534,0.347,0.908,0.347s0.676-0.116,0.907-0.347
			C127.742,34.529,127.858,34.238,127.858,33.885z"/>
		<path d="M135.03,28.704h2.574c0.623,0,1.215,0.07,1.776,0.209c0.561,0.14,1.051,0.365,1.469,0.677s0.749,0.717,0.995,1.216
			c0.246,0.498,0.368,1.104,0.368,1.814c0,0.631-0.119,1.187-0.357,1.667c-0.238,0.479-0.559,0.884-0.962,1.21
			s-0.869,0.573-1.397,0.742c-0.527,0.169-1.082,0.253-1.661,0.253h-2.805V28.704z M136.746,34.909h0.892
			c0.396,0,0.764-0.04,1.105-0.121c0.341-0.08,0.636-0.215,0.885-0.401c0.25-0.188,0.446-0.433,0.589-0.737
			c0.143-0.304,0.215-0.676,0.215-1.116c0-0.381-0.072-0.713-0.215-0.995s-0.336-0.516-0.577-0.699
			c-0.242-0.183-0.526-0.32-0.853-0.412c-0.327-0.092-0.67-0.138-1.029-0.138h-1.012V34.909z"/>
		<path d="M146.492,28.704h1.419l3.388,7.788h-1.937l-0.671-1.65h-3.024l-0.649,1.65h-1.892L146.492,28.704z M147.151,30.97
			l-0.945,2.421h1.902L147.151,30.97z"/>
		<path d="M153.729,33.17l-2.926-4.466h2.134l1.65,2.915l1.749-2.915h2.034l-2.926,4.466v3.322h-1.716V33.17z"/>
		<path d="M163.344,30.608c-0.139-0.176-0.328-0.307-0.566-0.391s-0.464-0.127-0.676-0.127c-0.125,0-0.253,0.015-0.386,0.044
			c-0.132,0.03-0.257,0.075-0.374,0.138s-0.213,0.146-0.286,0.248s-0.109,0.227-0.109,0.374c0,0.234,0.088,0.414,0.264,0.539
			c0.176,0.124,0.397,0.23,0.666,0.318c0.268,0.088,0.555,0.176,0.863,0.265c0.308,0.088,0.596,0.212,0.863,0.374
			c0.268,0.161,0.489,0.377,0.666,0.648c0.176,0.271,0.264,0.635,0.264,1.089c0,0.433-0.081,0.811-0.242,1.133
			c-0.161,0.323-0.379,0.591-0.654,0.804s-0.594,0.37-0.957,0.473s-0.746,0.154-1.149,0.154c-0.506,0-0.976-0.077-1.408-0.231
			c-0.433-0.153-0.836-0.403-1.21-0.748l1.221-1.342c0.177,0.234,0.398,0.416,0.666,0.545c0.268,0.128,0.544,0.192,0.83,0.192
			c0.14,0,0.28-0.017,0.424-0.05c0.143-0.033,0.271-0.082,0.385-0.148s0.205-0.15,0.275-0.253c0.069-0.103,0.104-0.224,0.104-0.363
			c0-0.234-0.09-0.42-0.27-0.556c-0.18-0.135-0.405-0.251-0.677-0.346c-0.271-0.096-0.564-0.191-0.88-0.286
			c-0.315-0.096-0.608-0.224-0.88-0.386c-0.271-0.161-0.497-0.374-0.677-0.638c-0.18-0.264-0.27-0.612-0.27-1.045
			c0-0.418,0.083-0.784,0.248-1.1c0.164-0.315,0.385-0.579,0.659-0.792c0.275-0.213,0.593-0.372,0.952-0.479s0.729-0.16,1.11-0.16
			c0.44,0,0.865,0.062,1.276,0.188c0.41,0.125,0.781,0.334,1.111,0.627L163.344,30.608z"/>
		<path d="M135.498,45.413h-2.706v-1.32h2.706V45.413z"/>
		<path d="M142.009,41.157h-3.091l-0.032,1.199c0.168-0.059,0.399-0.088,0.692-0.088c0.396,0,0.759,0.059,1.089,0.176
			s0.614,0.288,0.853,0.512s0.424,0.494,0.556,0.813s0.198,0.677,0.198,1.072c0,0.44-0.075,0.833-0.226,1.178
			s-0.357,0.636-0.622,0.874c-0.264,0.238-0.577,0.42-0.94,0.545c-0.362,0.124-0.757,0.187-1.182,0.187
			c-0.675,0-1.24-0.165-1.694-0.495c-0.455-0.33-0.767-0.828-0.936-1.496l1.728-0.396c0.044,0.278,0.161,0.504,0.352,0.677
			c0.191,0.172,0.43,0.258,0.716,0.258c0.352,0,0.632-0.109,0.841-0.33c0.209-0.22,0.313-0.498,0.313-0.836
			c0-0.256-0.053-0.467-0.159-0.632s-0.246-0.297-0.418-0.396c-0.173-0.099-0.365-0.167-0.577-0.203
			c-0.213-0.037-0.426-0.056-0.639-0.056c-0.271,0-0.544,0.026-0.819,0.077c-0.275,0.052-0.541,0.121-0.798,0.209l0.088-4.301h4.708
			V41.157z"/>
		<path d="M145.585,43.357c-0.265,0-0.51-0.05-0.737-0.148c-0.228-0.1-0.427-0.235-0.6-0.407c-0.172-0.172-0.308-0.372-0.407-0.6
			c-0.099-0.228-0.148-0.473-0.148-0.737c0-0.264,0.05-0.51,0.148-0.736c0.1-0.228,0.235-0.428,0.407-0.6
			c0.173-0.173,0.372-0.309,0.6-0.407s0.473-0.148,0.737-0.148c0.264,0,0.51,0.05,0.736,0.148c0.228,0.099,0.428,0.234,0.6,0.407
			c0.173,0.172,0.309,0.372,0.407,0.6c0.1,0.227,0.148,0.473,0.148,0.736c0,0.265-0.049,0.51-0.148,0.737
			c-0.099,0.228-0.234,0.428-0.407,0.6c-0.172,0.172-0.372,0.308-0.6,0.407C146.095,43.307,145.849,43.357,145.585,43.357z
			 M145.585,42.433c0.271,0,0.5-0.094,0.688-0.281c0.187-0.187,0.28-0.416,0.28-0.688c0-0.271-0.094-0.5-0.28-0.688
			c-0.188-0.187-0.416-0.28-0.688-0.28s-0.501,0.094-0.688,0.28c-0.188,0.188-0.28,0.417-0.28,0.688c0,0.271,0.093,0.501,0.28,0.688
			C145.084,42.339,145.313,42.433,145.585,42.433z"/>
		<path d="M154.219,41.729c-0.169-0.205-0.376-0.363-0.621-0.474c-0.246-0.109-0.53-0.165-0.853-0.165
			c-0.323,0-0.622,0.062-0.896,0.188c-0.275,0.125-0.514,0.299-0.715,0.522c-0.202,0.224-0.359,0.489-0.474,0.798
			c-0.113,0.308-0.17,0.642-0.17,1.001c0,0.366,0.057,0.702,0.17,1.006c0.114,0.305,0.27,0.568,0.468,0.792s0.431,0.398,0.698,0.522
			c0.268,0.125,0.556,0.188,0.864,0.188c0.352,0,0.663-0.073,0.935-0.221c0.271-0.146,0.495-0.352,0.671-0.615l1.43,1.066
			c-0.33,0.462-0.748,0.804-1.254,1.023s-1.026,0.33-1.562,0.33c-0.609,0-1.17-0.096-1.684-0.286
			c-0.513-0.19-0.957-0.464-1.331-0.819c-0.373-0.355-0.665-0.787-0.874-1.293s-0.313-1.07-0.313-1.693
			c0-0.624,0.104-1.188,0.313-1.694s0.501-0.937,0.874-1.293c0.374-0.355,0.818-0.628,1.331-0.819
			c0.514-0.19,1.074-0.286,1.684-0.286c0.22,0,0.449,0.021,0.688,0.061c0.238,0.041,0.473,0.104,0.704,0.192
			c0.23,0.089,0.452,0.206,0.665,0.353s0.403,0.326,0.572,0.539L154.219,41.729z"/>
	</g>
</g>
<g>
	<path fill="#FFFFFF" d="M4.481,10.329h0.864v4.554c0,0.402-0.062,0.73-0.188,0.986c-0.126,0.255-0.284,0.456-0.473,0.603
		c-0.189,0.147-0.392,0.249-0.607,0.306c-0.217,0.058-0.414,0.086-0.595,0.086c-0.449,0-0.829-0.115-1.138-0.347
		c-0.31-0.23-0.506-0.58-0.59-1.049l0.846-0.188c0.048,0.24,0.147,0.429,0.297,0.566c0.15,0.139,0.346,0.207,0.585,0.207
		c0.217,0,0.389-0.041,0.518-0.126c0.129-0.084,0.229-0.193,0.302-0.328s0.12-0.289,0.145-0.464
		c0.023-0.174,0.035-0.351,0.035-0.531V10.329z"/>
	<path fill="#FFFFFF" d="M9.054,10.329h0.782l2.728,6.372h-1.008l-0.64-1.575H7.884l-0.631,1.575H6.245L9.054,10.329z M10.602,14.37
		l-1.188-2.925H9.396L8.189,14.37H10.602z"/>
	<path fill="#FFFFFF" d="M13.617,10.329h1.134l3.51,5.238h0.019v-5.238h0.863v6.372h-1.098l-3.546-5.238H14.48v5.238h-0.863V10.329z
		"/>
</g>
<g>
	<path fill="#FFFFFF" d="M179.932,10.33h2.224c0.449,0,0.844,0.051,1.183,0.153c0.339,0.103,0.634,0.239,0.883,0.41
		s0.455,0.368,0.621,0.589c0.164,0.222,0.295,0.45,0.391,0.684c0.097,0.234,0.165,0.468,0.207,0.702s0.063,0.45,0.063,0.648
		c0,0.409-0.075,0.803-0.225,1.184c-0.15,0.381-0.373,0.72-0.666,1.017c-0.295,0.297-0.659,0.535-1.094,0.716
		c-0.436,0.18-0.938,0.27-1.508,0.27h-2.079V10.33z M180.796,15.892h1.089c0.366,0,0.713-0.05,1.04-0.149
		c0.326-0.099,0.613-0.247,0.859-0.445c0.246-0.197,0.44-0.445,0.585-0.742c0.144-0.297,0.216-0.644,0.216-1.04
		c0-0.204-0.033-0.442-0.1-0.715c-0.065-0.273-0.19-0.533-0.373-0.779c-0.183-0.246-0.437-0.454-0.761-0.625
		c-0.323-0.171-0.744-0.256-1.26-0.256h-1.296V15.892z"/>
	<path fill="#FFFFFF" d="M186.97,10.33h4.112v0.81h-3.249v1.899h3.024v0.81h-3.024v2.044h3.411v0.81h-4.274V10.33z"/>
	<path fill="#FFFFFF" d="M197.131,11.707c-0.18-0.234-0.408-0.414-0.684-0.54c-0.276-0.126-0.562-0.189-0.855-0.189
		c-0.359,0-0.686,0.067-0.977,0.203c-0.291,0.135-0.54,0.319-0.747,0.554c-0.207,0.234-0.367,0.508-0.481,0.823
		c-0.113,0.315-0.171,0.652-0.171,1.013c0,0.336,0.054,0.653,0.162,0.954c0.108,0.3,0.264,0.563,0.468,0.792
		c0.204,0.228,0.453,0.408,0.747,0.54s0.627,0.197,0.999,0.197c0.366,0,0.688-0.074,0.963-0.225c0.276-0.149,0.51-0.36,0.702-0.63
		l0.729,0.549c-0.049,0.066-0.133,0.161-0.252,0.283c-0.12,0.123-0.279,0.246-0.478,0.369s-0.437,0.231-0.716,0.324
		c-0.278,0.093-0.602,0.14-0.967,0.14c-0.504,0-0.959-0.096-1.363-0.288c-0.405-0.192-0.751-0.444-1.035-0.756
		c-0.285-0.312-0.503-0.665-0.652-1.058c-0.15-0.393-0.226-0.791-0.226-1.192c0-0.492,0.081-0.947,0.243-1.364
		s0.389-0.777,0.68-1.08c0.291-0.303,0.641-0.538,1.048-0.707c0.408-0.167,0.858-0.252,1.351-0.252c0.42,0,0.832,0.081,1.237,0.243
		s0.736,0.411,0.994,0.747L197.131,11.707z"/>
</g>
<line fill="none" stroke="#231F20" stroke-miterlimit="10" x1="53.731" y1="25.366" x2="53.731" y2="2.519"/>
<line fill="none" stroke="#231F20" stroke-miterlimit="10" x1="144.194" y1="2.519" x2="144.194" y2="25.366"/>
</svg>
