<?xml version="1.0" encoding="utf-8"?>
<!-- Generator: Adobe Illustrator 18.1.1, SVG Export Plug-In . SVG Version: 6.00 Build 0)  -->
<!DOCTYPE svg PUBLIC "-//W3C//DTD SVG 1.1//EN" "http://www.w3.org/Graphics/SVG/1.1/DTD/svg11.dtd">
<svg version="1.1" id="Layer_1" xmlns="http://www.w3.org/2000/svg" xmlns:xlink="http://www.w3.org/1999/xlink" x="0px" y="0px"
	 viewBox="0 0 35 35" enable-background="new 0 0 35 35" xml:space="preserve">
<path fill-rule="evenodd" clip-rule="evenodd" fill="#69BD7F" d="M18.309,20.519c-0.217,0.304-0.434,0.615-0.646,0.929
	c-0.603,0.887-1.223,1.718-1.766,2.173c-0.074,0.066-0.139,0.12-0.198,0.168c-0.21-0.874-0.464-1.762-0.79-2.622
	c-0.646-1.669-1.4-3.213-1.904-4.565c0.116-0.014,0.229-0.024,0.351-0.045c6.796-1.191-1.087-8.82-2.035-12.95
	c-3.84,3.603-4.767,13.179,1.112,13.038c0.297,1.48,0.833,3.197,1.207,4.899c0.221,1.039,0.351,2.077,0.407,3.045
	c0.031,0.969-0.006,1.877-0.088,2.634c-0.086,0.734-0.182,1.367-0.289,1.854c-0.09,0.469-0.142,0.736-0.142,0.736
	c-0.012,0.063-0.021,0.137-0.023,0.202c-0.027,0.733,0.545,1.349,1.278,1.376c0.733,0.027,1.349-0.545,1.376-1.278
	c0,0,0.011-0.272,0.029-0.749c0.031-0.456,0.036-1.177,0.005-2.075c-0.022-0.507-0.078-1.062-0.152-1.638
	c0.046-0.042,0.113-0.103,0.209-0.191c0.16-0.148,0.516-0.5,0.757-0.845c0.556-0.722,1.02-1.754,1.431-2.745
	c0.133-0.325,0.267-0.641,0.402-0.95c0.306,0.188,0.669,0.358,1.11,0.5c4.645,1.493,2.665-4.96,6.82-6.004
	C22.108,12.775,15.567,17.898,18.309,20.519z"/>
</svg>
