<?xml version="1.0" encoding="utf-8"?>
<!-- Generator: Adobe Illustrator 18.1.0, SVG Export Plug-In . SVG Version: 6.00 Build 0)  -->
<!DOCTYPE svg PUBLIC "-//W3C//DTD SVG 1.1//EN" "http://www.w3.org/Graphics/SVG/1.1/DTD/svg11.dtd">
<svg version="1.1" id="Layer_1" xmlns="http://www.w3.org/2000/svg" xmlns:xlink="http://www.w3.org/1999/xlink" x="0px" y="0px"
	 viewBox="0 0 200 29" enable-background="new 0 0 200 29" xml:space="preserve">
<rect x="68.625" y="3.106" fill="#FB9956" width="24.888" height="11.95"/>
<rect x="95.247" y="3.106" fill="#FB9956" width="24.888" height="11.95"/>
<rect x="121.869" y="3.106" fill="#FB9956" width="24.888" height="11.95"/>
<rect x="148.49" y="3.106" fill="#FB9956" width="24.888" height="11.95"/>
<rect x="175.112" y="3.106" fill="#FB9956" width="24.888" height="11.95"/>
<g>
	<g>
		<path d="M5.983,2.637h0.96v2.94h3.67v-2.94h0.96v7.08h-0.96v-3.24h-3.67v3.24h-0.96V2.637z"/>
		<path d="M13.493,2.637h4.57v0.9h-3.61v2.11h3.36v0.899h-3.36v2.27h3.79v0.9h-4.75V2.637z"/>
		<path d="M21.923,2.637h0.87l3.03,7.08h-1.12l-0.71-1.75h-3.37l-0.7,1.75h-1.12L21.923,2.637z M23.643,7.127l-1.319-3.25h-0.021
			l-1.34,3.25H23.643z"/>
		<path d="M27.402,3.537h-2.279v-0.9h5.52v0.9h-2.28v6.18h-0.96V3.537z"/>
		<path d="M2.093,11.637h1l1.565,5.66h0.02l1.665-5.66h1.101l1.664,5.66h0.021l1.565-5.66h1l-2.061,7.08h-1.02l-1.71-5.78H6.883
			l-1.7,5.78h-1.02L2.093,11.637z"/>
		<path d="M14.693,11.637h0.87l3.03,7.08h-1.12l-0.71-1.75h-3.37l-0.7,1.75h-1.12L14.693,11.637z M16.413,16.127l-1.319-3.25h-0.021
			l-1.34,3.25H16.413z"/>
		<path d="M18.184,11.637h1.109l2.08,5.76h0.021l2.159-5.76h1.051l-2.79,7.08h-0.9L18.184,11.637z"/>
		<path d="M25.553,11.637h4.57v0.9h-3.61v2.109h3.36v0.9h-3.36v2.27h3.79v0.9h-4.75V11.637z"/>
	</g>
</g>
<g>
	<path d="M68.812,21.538c0.253-0.233,0.546-0.408,0.88-0.524c0.333-0.117,0.666-0.176,1-0.176c0.347,0,0.645,0.044,0.895,0.13
		c0.25,0.087,0.455,0.204,0.615,0.351s0.278,0.314,0.355,0.505c0.076,0.19,0.114,0.389,0.114,0.595v2.42
		c0,0.167,0.004,0.32,0.011,0.46c0.006,0.141,0.017,0.273,0.029,0.4h-0.8c-0.02-0.24-0.03-0.48-0.03-0.72h-0.02
		c-0.2,0.307-0.437,0.523-0.71,0.649c-0.273,0.127-0.59,0.19-0.95,0.19c-0.22,0-0.43-0.03-0.63-0.09
		c-0.2-0.061-0.375-0.15-0.525-0.271c-0.149-0.12-0.268-0.268-0.354-0.444s-0.13-0.382-0.13-0.615c0-0.307,0.068-0.563,0.205-0.771
		c0.137-0.206,0.323-0.375,0.56-0.505s0.514-0.223,0.83-0.28c0.316-0.056,0.655-0.085,1.015-0.085h0.66v-0.199
		c0-0.12-0.023-0.24-0.069-0.36c-0.047-0.12-0.117-0.229-0.21-0.325c-0.094-0.097-0.21-0.173-0.351-0.229
		c-0.14-0.057-0.307-0.085-0.5-0.085c-0.173,0-0.325,0.017-0.455,0.05s-0.248,0.075-0.354,0.125c-0.107,0.05-0.204,0.108-0.29,0.175
		c-0.087,0.066-0.17,0.13-0.25,0.19L68.812,21.538z M71.352,23.418c-0.214,0-0.432,0.012-0.655,0.035s-0.427,0.068-0.61,0.135
		c-0.183,0.067-0.333,0.16-0.449,0.28c-0.117,0.12-0.176,0.273-0.176,0.46c0,0.273,0.092,0.47,0.275,0.59s0.432,0.181,0.745,0.181
		c0.246,0,0.456-0.042,0.63-0.125c0.173-0.084,0.313-0.192,0.42-0.325c0.106-0.134,0.184-0.282,0.23-0.445
		c0.046-0.163,0.069-0.325,0.069-0.485v-0.3H71.352z"/>
	<path d="M76.621,21.738h-1.29v2.15c0,0.133,0.004,0.265,0.011,0.395c0.006,0.13,0.031,0.247,0.074,0.35
		c0.044,0.104,0.11,0.188,0.2,0.25c0.09,0.063,0.222,0.096,0.396,0.096c0.106,0,0.216-0.011,0.33-0.03
		c0.113-0.02,0.216-0.057,0.31-0.11v0.82c-0.106,0.06-0.245,0.102-0.415,0.125s-0.302,0.035-0.395,0.035
		c-0.347,0-0.615-0.049-0.806-0.146c-0.189-0.096-0.33-0.221-0.42-0.375c-0.09-0.153-0.144-0.324-0.16-0.515
		s-0.024-0.382-0.024-0.575v-2.47h-1.04v-0.78h1.04v-1.33h0.899v1.33h1.29V21.738z"/>
	<path d="M80.831,18.139h0.9v7.56h-0.9V18.139z"/>
	<path d="M83.941,23.658c0,0.207,0.045,0.396,0.135,0.565s0.208,0.314,0.354,0.435s0.317,0.214,0.511,0.28s0.393,0.1,0.6,0.1
		c0.28,0,0.523-0.064,0.73-0.195c0.206-0.13,0.396-0.301,0.569-0.515l0.681,0.521c-0.5,0.646-1.2,0.97-2.101,0.97
		c-0.373,0-0.712-0.063-1.015-0.19c-0.304-0.126-0.561-0.301-0.771-0.524s-0.371-0.487-0.484-0.79
		c-0.113-0.304-0.17-0.632-0.17-0.985s0.062-0.682,0.185-0.985c0.123-0.303,0.293-0.566,0.51-0.789
		c0.217-0.224,0.476-0.398,0.775-0.525s0.626-0.19,0.979-0.19c0.42,0,0.775,0.074,1.065,0.221s0.528,0.338,0.715,0.574
		c0.187,0.237,0.321,0.504,0.405,0.801c0.083,0.296,0.125,0.598,0.125,0.904v0.32H83.941z M86.781,22.938
		c-0.007-0.2-0.039-0.384-0.095-0.55c-0.058-0.167-0.143-0.312-0.256-0.436c-0.113-0.123-0.255-0.22-0.425-0.29
		s-0.368-0.104-0.595-0.104c-0.22,0-0.422,0.041-0.605,0.125c-0.183,0.083-0.338,0.191-0.465,0.324
		c-0.127,0.134-0.225,0.282-0.295,0.445s-0.104,0.325-0.104,0.485H86.781z"/>
	<path d="M88.941,21.538c0.253-0.233,0.546-0.408,0.88-0.524c0.333-0.117,0.666-0.176,1-0.176c0.347,0,0.645,0.044,0.895,0.13
		c0.25,0.087,0.455,0.204,0.615,0.351s0.278,0.314,0.355,0.505c0.076,0.19,0.114,0.389,0.114,0.595v2.42
		c0,0.167,0.004,0.32,0.011,0.46c0.006,0.141,0.017,0.273,0.029,0.4h-0.8c-0.02-0.24-0.03-0.48-0.03-0.72h-0.02
		c-0.2,0.307-0.437,0.523-0.71,0.649c-0.273,0.127-0.59,0.19-0.95,0.19c-0.22,0-0.43-0.03-0.63-0.09
		c-0.2-0.061-0.375-0.15-0.525-0.271c-0.149-0.12-0.268-0.268-0.354-0.444s-0.13-0.382-0.13-0.615c0-0.307,0.068-0.563,0.205-0.771
		c0.137-0.206,0.323-0.375,0.56-0.505s0.514-0.223,0.83-0.28c0.316-0.056,0.655-0.085,1.015-0.085h0.66v-0.199
		c0-0.12-0.023-0.24-0.069-0.36c-0.047-0.12-0.117-0.229-0.21-0.325c-0.094-0.097-0.21-0.173-0.351-0.229
		c-0.14-0.057-0.307-0.085-0.5-0.085c-0.173,0-0.325,0.017-0.455,0.05s-0.248,0.075-0.354,0.125c-0.107,0.05-0.204,0.108-0.29,0.175
		c-0.087,0.066-0.17,0.13-0.25,0.19L88.941,21.538z M91.481,23.418c-0.214,0-0.432,0.012-0.655,0.035s-0.427,0.068-0.61,0.135
		c-0.183,0.067-0.333,0.16-0.449,0.28c-0.117,0.12-0.176,0.273-0.176,0.46c0,0.273,0.092,0.47,0.275,0.59s0.432,0.181,0.745,0.181
		c0.246,0,0.456-0.042,0.63-0.125c0.173-0.084,0.313-0.192,0.42-0.325c0.106-0.134,0.184-0.282,0.23-0.445
		c0.046-0.163,0.069-0.325,0.069-0.485v-0.3H91.481z"/>
	<path d="M96.731,22.148c-0.106-0.134-0.238-0.245-0.396-0.335c-0.156-0.09-0.348-0.135-0.574-0.135
		c-0.214,0-0.398,0.045-0.556,0.135c-0.156,0.09-0.234,0.222-0.234,0.395c0,0.141,0.045,0.254,0.135,0.34
		c0.09,0.087,0.196,0.157,0.319,0.21c0.124,0.054,0.256,0.094,0.396,0.12c0.14,0.027,0.26,0.051,0.36,0.07
		c0.193,0.047,0.375,0.104,0.545,0.17s0.316,0.153,0.439,0.26c0.123,0.107,0.221,0.237,0.29,0.391c0.07,0.153,0.105,0.34,0.105,0.56
		c0,0.267-0.057,0.495-0.17,0.686c-0.114,0.189-0.261,0.345-0.44,0.465s-0.385,0.206-0.615,0.26c-0.229,0.054-0.461,0.08-0.694,0.08
		c-0.394,0-0.739-0.061-1.035-0.18c-0.297-0.12-0.562-0.341-0.795-0.66l0.68-0.561c0.146,0.147,0.31,0.277,0.49,0.391
		c0.18,0.113,0.399,0.17,0.66,0.17c0.113,0,0.228-0.012,0.345-0.035c0.116-0.023,0.22-0.061,0.31-0.11
		c0.091-0.05,0.164-0.113,0.221-0.189c0.057-0.077,0.085-0.165,0.085-0.266c0-0.133-0.042-0.243-0.125-0.33
		c-0.084-0.086-0.184-0.154-0.301-0.205c-0.116-0.05-0.239-0.09-0.369-0.119c-0.131-0.03-0.245-0.056-0.346-0.075
		c-0.193-0.047-0.376-0.101-0.55-0.16c-0.173-0.06-0.326-0.14-0.46-0.24c-0.134-0.1-0.24-0.227-0.32-0.38s-0.119-0.343-0.119-0.57
		c0-0.246,0.051-0.461,0.154-0.645s0.24-0.335,0.41-0.455s0.363-0.21,0.58-0.27c0.217-0.061,0.435-0.091,0.655-0.091
		c0.319,0,0.626,0.061,0.92,0.181c0.293,0.12,0.526,0.319,0.7,0.6L96.731,22.148z"/>
	<path d="M101.291,21.738h-1.29v2.15c0,0.133,0.004,0.265,0.011,0.395c0.006,0.13,0.031,0.247,0.074,0.35
		c0.044,0.104,0.11,0.188,0.2,0.25c0.09,0.063,0.222,0.096,0.396,0.096c0.106,0,0.216-0.011,0.33-0.03
		c0.113-0.02,0.216-0.057,0.31-0.11v0.82c-0.106,0.06-0.245,0.102-0.415,0.125s-0.302,0.035-0.395,0.035
		c-0.347,0-0.615-0.049-0.806-0.146c-0.189-0.096-0.33-0.221-0.42-0.375c-0.09-0.153-0.144-0.324-0.16-0.515
		s-0.024-0.382-0.024-0.575v-2.47h-1.04v-0.78h1.04v-1.33h0.899v1.33h1.29V21.738z"/>
	<path d="M105.411,22.278h2.28v-2.28h0.779v2.28h2.28v0.78h-2.28v2.279h-0.779v-2.279h-2.28V22.278z"/>
	<path d="M116.221,19.519h-2.87l-0.03,1.77c0.047-0.02,0.113-0.04,0.2-0.06c0.087-0.021,0.175-0.037,0.266-0.05
		c0.09-0.014,0.178-0.023,0.265-0.03s0.16-0.01,0.22-0.01c0.334,0,0.635,0.057,0.905,0.17c0.27,0.113,0.502,0.273,0.695,0.479
		c0.193,0.207,0.341,0.453,0.444,0.74s0.155,0.604,0.155,0.95c0,0.354-0.065,0.673-0.195,0.96c-0.13,0.286-0.308,0.533-0.534,0.74
		c-0.228,0.206-0.49,0.364-0.79,0.475c-0.301,0.11-0.624,0.165-0.971,0.165c-0.479,0-0.913-0.123-1.3-0.37
		c-0.387-0.246-0.663-0.6-0.83-1.06l0.96-0.33c0.127,0.326,0.298,0.562,0.512,0.705c0.215,0.143,0.482,0.215,0.804,0.215
		c0.187,0,0.366-0.033,0.537-0.101c0.17-0.066,0.317-0.161,0.441-0.285c0.123-0.123,0.223-0.274,0.296-0.454
		c0.073-0.181,0.11-0.384,0.11-0.61c0-0.521-0.158-0.908-0.475-1.165c-0.317-0.257-0.729-0.385-1.235-0.385
		c-0.18,0-0.408,0.031-0.685,0.095c-0.277,0.063-0.535,0.155-0.775,0.275l0.08-3.73h3.8V19.519z"/>
	<path d="M117.681,19.988c0-0.207,0.038-0.4,0.115-0.58c0.076-0.18,0.184-0.337,0.32-0.47c0.137-0.134,0.295-0.24,0.475-0.32
		s0.373-0.12,0.58-0.12s0.4,0.04,0.58,0.12s0.337,0.187,0.47,0.32c0.134,0.133,0.24,0.29,0.32,0.47s0.12,0.373,0.12,0.58
		s-0.04,0.4-0.12,0.58s-0.187,0.338-0.32,0.475c-0.133,0.137-0.29,0.244-0.47,0.32c-0.18,0.077-0.373,0.115-0.58,0.115
		s-0.4-0.038-0.58-0.115c-0.18-0.076-0.338-0.184-0.475-0.32s-0.244-0.295-0.32-0.475C117.719,20.389,117.681,20.195,117.681,19.988
		z M118.341,19.988c0,0.233,0.08,0.43,0.24,0.59s0.356,0.24,0.59,0.24s0.43-0.08,0.59-0.24s0.24-0.356,0.24-0.59
		s-0.08-0.43-0.24-0.59s-0.356-0.24-0.59-0.24s-0.43,0.08-0.59,0.24S118.341,19.755,118.341,19.988z"/>
	<path d="M127.11,20.148c-0.2-0.26-0.453-0.46-0.76-0.601c-0.307-0.14-0.623-0.21-0.95-0.21c-0.399,0-0.762,0.075-1.085,0.226
		c-0.323,0.149-0.6,0.354-0.83,0.615c-0.229,0.26-0.408,0.564-0.535,0.914c-0.126,0.351-0.189,0.726-0.189,1.125
		c0,0.374,0.06,0.728,0.18,1.061s0.293,0.627,0.521,0.88c0.227,0.254,0.503,0.453,0.829,0.6c0.327,0.147,0.697,0.221,1.11,0.221
		c0.406,0,0.764-0.084,1.07-0.25c0.307-0.167,0.566-0.4,0.78-0.7l0.81,0.61c-0.054,0.073-0.146,0.178-0.28,0.314
		c-0.133,0.137-0.31,0.273-0.529,0.41c-0.221,0.137-0.485,0.257-0.796,0.36c-0.31,0.103-0.668,0.154-1.074,0.154
		c-0.561,0-1.065-0.106-1.516-0.319c-0.45-0.214-0.833-0.493-1.149-0.841c-0.317-0.346-0.559-0.738-0.726-1.175
		c-0.166-0.437-0.25-0.878-0.25-1.325c0-0.546,0.09-1.051,0.271-1.515c0.18-0.463,0.432-0.863,0.755-1.2
		c0.323-0.336,0.712-0.598,1.165-0.785c0.453-0.187,0.953-0.279,1.5-0.279c0.467,0,0.925,0.09,1.375,0.27
		c0.45,0.181,0.818,0.457,1.104,0.83L127.11,20.148z"/>
	<path d="M131.991,21.538c0.253-0.233,0.546-0.408,0.88-0.524c0.333-0.117,0.666-0.176,1-0.176c0.347,0,0.645,0.044,0.895,0.13
		c0.25,0.087,0.455,0.204,0.615,0.351s0.278,0.314,0.355,0.505c0.076,0.19,0.114,0.389,0.114,0.595v2.42
		c0,0.167,0.004,0.32,0.011,0.46c0.006,0.141,0.017,0.273,0.029,0.4h-0.8c-0.02-0.24-0.03-0.48-0.03-0.72h-0.02
		c-0.2,0.307-0.437,0.523-0.71,0.649c-0.273,0.127-0.59,0.19-0.95,0.19c-0.22,0-0.43-0.03-0.63-0.09
		c-0.2-0.061-0.375-0.15-0.525-0.271c-0.149-0.12-0.268-0.268-0.354-0.444s-0.13-0.382-0.13-0.615c0-0.307,0.068-0.563,0.205-0.771
		c0.137-0.206,0.323-0.375,0.56-0.505s0.514-0.223,0.83-0.28c0.316-0.056,0.655-0.085,1.015-0.085h0.66v-0.199
		c0-0.12-0.023-0.24-0.069-0.36c-0.047-0.12-0.117-0.229-0.21-0.325c-0.094-0.097-0.21-0.173-0.351-0.229
		c-0.14-0.057-0.307-0.085-0.5-0.085c-0.173,0-0.325,0.017-0.455,0.05s-0.248,0.075-0.354,0.125c-0.107,0.05-0.204,0.108-0.29,0.175
		c-0.087,0.066-0.17,0.13-0.25,0.19L131.991,21.538z M134.531,23.418c-0.214,0-0.432,0.012-0.655,0.035s-0.427,0.068-0.61,0.135
		c-0.183,0.067-0.333,0.16-0.449,0.28c-0.117,0.12-0.176,0.273-0.176,0.46c0,0.273,0.092,0.47,0.275,0.59s0.432,0.181,0.745,0.181
		c0.246,0,0.456-0.042,0.63-0.125c0.173-0.084,0.313-0.192,0.42-0.325c0.106-0.134,0.184-0.282,0.23-0.445
		c0.046-0.163,0.069-0.325,0.069-0.485v-0.3H134.531z"/>
	<path d="M137.261,18.139h0.9v3.5h0.02c0.16-0.247,0.391-0.442,0.69-0.585c0.3-0.144,0.62-0.216,0.96-0.216
		c0.366,0,0.698,0.063,0.995,0.19s0.55,0.302,0.76,0.525c0.21,0.223,0.372,0.486,0.485,0.789c0.113,0.304,0.17,0.632,0.17,0.985
		s-0.057,0.68-0.17,0.98c-0.113,0.3-0.275,0.563-0.485,0.79s-0.463,0.403-0.76,0.529c-0.297,0.127-0.629,0.19-0.995,0.19
		c-0.32,0-0.632-0.07-0.935-0.21c-0.304-0.141-0.542-0.337-0.716-0.59h-0.02v0.68h-0.9V18.139z M139.721,24.979
		c0.24,0,0.457-0.042,0.65-0.125c0.193-0.084,0.356-0.197,0.49-0.34c0.133-0.144,0.236-0.317,0.31-0.521s0.11-0.425,0.11-0.665
		s-0.037-0.462-0.11-0.665s-0.177-0.376-0.31-0.52c-0.134-0.144-0.297-0.257-0.49-0.34c-0.193-0.084-0.41-0.125-0.65-0.125
		c-0.239,0-0.456,0.041-0.649,0.125c-0.193,0.083-0.357,0.196-0.49,0.34c-0.134,0.144-0.236,0.316-0.31,0.52
		c-0.074,0.203-0.11,0.425-0.11,0.665s0.036,0.462,0.11,0.665c0.073,0.203,0.176,0.377,0.31,0.521
		c0.133,0.143,0.297,0.256,0.49,0.34C139.265,24.937,139.481,24.979,139.721,24.979z"/>
	<path d="M143.241,23.328c0-0.347,0.064-0.67,0.194-0.97c0.131-0.3,0.309-0.563,0.535-0.79s0.493-0.405,0.801-0.535
		c0.306-0.13,0.636-0.195,0.989-0.195s0.684,0.065,0.99,0.195s0.573,0.309,0.8,0.535s0.405,0.49,0.535,0.79s0.195,0.623,0.195,0.97
		s-0.065,0.672-0.195,0.976c-0.13,0.303-0.309,0.566-0.535,0.789c-0.227,0.224-0.493,0.4-0.8,0.53s-0.637,0.195-0.99,0.195
		s-0.684-0.065-0.989-0.195c-0.308-0.13-0.574-0.307-0.801-0.53c-0.227-0.223-0.404-0.486-0.535-0.789
		C143.306,24,143.241,23.675,143.241,23.328z M144.201,23.328c0,0.24,0.036,0.462,0.109,0.665c0.074,0.203,0.177,0.377,0.311,0.521
		c0.133,0.143,0.297,0.256,0.49,0.34c0.193,0.083,0.41,0.125,0.649,0.125c0.24,0,0.457-0.042,0.65-0.125
		c0.193-0.084,0.356-0.197,0.49-0.34c0.133-0.144,0.236-0.317,0.31-0.521s0.11-0.425,0.11-0.665s-0.037-0.462-0.11-0.665
		s-0.177-0.376-0.31-0.52c-0.134-0.144-0.297-0.257-0.49-0.34c-0.193-0.084-0.41-0.125-0.65-0.125c-0.239,0-0.456,0.041-0.649,0.125
		c-0.193,0.083-0.357,0.196-0.49,0.34c-0.134,0.144-0.236,0.316-0.311,0.52C144.237,22.866,144.201,23.088,144.201,23.328z"/>
	<path d="M148.94,20.958h1.04l1.42,3.63l1.359-3.63h0.96l-1.859,4.74h-0.99L148.94,20.958z"/>
	<path d="M155.291,23.658c0,0.207,0.045,0.396,0.135,0.565s0.208,0.314,0.354,0.435s0.317,0.214,0.511,0.28s0.393,0.1,0.6,0.1
		c0.28,0,0.523-0.064,0.73-0.195c0.206-0.13,0.396-0.301,0.569-0.515l0.681,0.521c-0.5,0.646-1.2,0.97-2.101,0.97
		c-0.373,0-0.712-0.063-1.015-0.19c-0.304-0.126-0.561-0.301-0.771-0.524s-0.371-0.487-0.484-0.79
		c-0.113-0.304-0.17-0.632-0.17-0.985s0.062-0.682,0.185-0.985c0.123-0.303,0.293-0.566,0.51-0.789
		c0.217-0.224,0.476-0.398,0.775-0.525s0.626-0.19,0.979-0.19c0.42,0,0.775,0.074,1.065,0.221s0.528,0.338,0.715,0.574
		c0.187,0.237,0.321,0.504,0.405,0.801c0.083,0.296,0.125,0.598,0.125,0.904v0.32H155.291z M158.131,22.938
		c-0.007-0.2-0.039-0.384-0.095-0.55c-0.058-0.167-0.143-0.312-0.256-0.436c-0.113-0.123-0.255-0.22-0.425-0.29
		s-0.368-0.104-0.595-0.104c-0.22,0-0.422,0.041-0.605,0.125c-0.183,0.083-0.338,0.191-0.465,0.324
		c-0.127,0.134-0.225,0.282-0.295,0.445s-0.104,0.325-0.104,0.485H158.131z"/>
	<path d="M163.171,21.538c0.253-0.233,0.546-0.408,0.88-0.524c0.333-0.117,0.666-0.176,1-0.176c0.347,0,0.645,0.044,0.895,0.13
		c0.25,0.087,0.455,0.204,0.615,0.351s0.278,0.314,0.355,0.505c0.076,0.19,0.114,0.389,0.114,0.595v2.42
		c0,0.167,0.004,0.32,0.011,0.46c0.006,0.141,0.017,0.273,0.029,0.4h-0.8c-0.02-0.24-0.03-0.48-0.03-0.72h-0.02
		c-0.2,0.307-0.437,0.523-0.71,0.649c-0.273,0.127-0.59,0.19-0.95,0.19c-0.22,0-0.43-0.03-0.63-0.09
		c-0.2-0.061-0.375-0.15-0.525-0.271c-0.149-0.12-0.268-0.268-0.354-0.444s-0.13-0.382-0.13-0.615c0-0.307,0.068-0.563,0.205-0.771
		c0.137-0.206,0.323-0.375,0.56-0.505s0.514-0.223,0.83-0.28c0.316-0.056,0.655-0.085,1.015-0.085h0.66v-0.199
		c0-0.12-0.023-0.24-0.069-0.36c-0.047-0.12-0.117-0.229-0.21-0.325c-0.094-0.097-0.21-0.173-0.351-0.229
		c-0.14-0.057-0.307-0.085-0.5-0.085c-0.173,0-0.325,0.017-0.455,0.05s-0.248,0.075-0.354,0.125c-0.107,0.05-0.204,0.108-0.29,0.175
		c-0.087,0.066-0.17,0.13-0.25,0.19L163.171,21.538z M165.711,23.418c-0.214,0-0.432,0.012-0.655,0.035s-0.427,0.068-0.61,0.135
		c-0.183,0.067-0.333,0.16-0.449,0.28c-0.117,0.12-0.176,0.273-0.176,0.46c0,0.273,0.092,0.47,0.275,0.59s0.432,0.181,0.745,0.181
		c0.246,0,0.456-0.042,0.63-0.125c0.173-0.084,0.313-0.192,0.42-0.325c0.106-0.134,0.184-0.282,0.23-0.445
		c0.046-0.163,0.069-0.325,0.069-0.485v-0.3H165.711z"/>
	<path d="M167.871,20.958h1.04l1.42,3.63l1.359-3.63h0.96l-1.859,4.74h-0.99L167.871,20.958z"/>
	<path d="M174.221,23.658c0,0.207,0.045,0.396,0.135,0.565s0.208,0.314,0.354,0.435s0.317,0.214,0.511,0.28s0.393,0.1,0.6,0.1
		c0.28,0,0.523-0.064,0.73-0.195c0.206-0.13,0.396-0.301,0.569-0.515l0.681,0.521c-0.5,0.646-1.2,0.97-2.101,0.97
		c-0.373,0-0.712-0.063-1.015-0.19c-0.304-0.126-0.561-0.301-0.771-0.524s-0.371-0.487-0.484-0.79
		c-0.113-0.304-0.17-0.632-0.17-0.985s0.062-0.682,0.185-0.985c0.123-0.303,0.293-0.566,0.51-0.789
		c0.217-0.224,0.476-0.398,0.775-0.525s0.626-0.19,0.979-0.19c0.42,0,0.775,0.074,1.065,0.221s0.528,0.338,0.715,0.574
		c0.187,0.237,0.321,0.504,0.405,0.801c0.083,0.296,0.125,0.598,0.125,0.904v0.32H174.221z M177.061,22.938
		c-0.007-0.2-0.039-0.384-0.095-0.55c-0.058-0.167-0.143-0.312-0.256-0.436c-0.113-0.123-0.255-0.22-0.425-0.29
		s-0.368-0.104-0.595-0.104c-0.22,0-0.422,0.041-0.605,0.125c-0.183,0.083-0.338,0.191-0.465,0.324
		c-0.127,0.134-0.225,0.282-0.295,0.445s-0.104,0.325-0.104,0.485H177.061z"/>
	<path d="M179.2,20.958h0.9v0.73h0.02c0.061-0.127,0.141-0.242,0.24-0.346c0.101-0.103,0.212-0.191,0.335-0.265
		s0.259-0.132,0.405-0.175s0.293-0.065,0.439-0.065c0.147,0,0.28,0.021,0.4,0.061l-0.04,0.97c-0.073-0.02-0.146-0.036-0.22-0.05
		s-0.146-0.021-0.22-0.021c-0.44,0-0.777,0.124-1.011,0.37c-0.233,0.247-0.35,0.63-0.35,1.15v2.38h-0.9V20.958z"/>
	<path d="M183.021,21.538c0.253-0.233,0.546-0.408,0.88-0.524c0.333-0.117,0.666-0.176,1-0.176c0.347,0,0.645,0.044,0.895,0.13
		c0.25,0.087,0.455,0.204,0.615,0.351s0.278,0.314,0.355,0.505c0.076,0.19,0.114,0.389,0.114,0.595v2.42
		c0,0.167,0.004,0.32,0.011,0.46c0.006,0.141,0.017,0.273,0.029,0.4h-0.8c-0.02-0.24-0.03-0.48-0.03-0.72h-0.02
		c-0.2,0.307-0.437,0.523-0.71,0.649c-0.273,0.127-0.59,0.19-0.95,0.19c-0.22,0-0.43-0.03-0.63-0.09
		c-0.2-0.061-0.375-0.15-0.525-0.271c-0.149-0.12-0.268-0.268-0.354-0.444s-0.13-0.382-0.13-0.615c0-0.307,0.068-0.563,0.205-0.771
		c0.137-0.206,0.323-0.375,0.56-0.505s0.514-0.223,0.83-0.28c0.316-0.056,0.655-0.085,1.015-0.085h0.66v-0.199
		c0-0.12-0.023-0.24-0.069-0.36c-0.047-0.12-0.117-0.229-0.21-0.325c-0.094-0.097-0.21-0.173-0.351-0.229
		c-0.14-0.057-0.307-0.085-0.5-0.085c-0.173,0-0.325,0.017-0.455,0.05s-0.248,0.075-0.354,0.125c-0.107,0.05-0.204,0.108-0.29,0.175
		c-0.087,0.066-0.17,0.13-0.25,0.19L183.021,21.538z M185.561,23.418c-0.214,0-0.432,0.012-0.655,0.035s-0.427,0.068-0.61,0.135
		c-0.183,0.067-0.333,0.16-0.449,0.28c-0.117,0.12-0.176,0.273-0.176,0.46c0,0.273,0.092,0.47,0.275,0.59s0.432,0.181,0.745,0.181
		c0.246,0,0.456-0.042,0.63-0.125c0.173-0.084,0.313-0.192,0.42-0.325c0.106-0.134,0.184-0.282,0.23-0.445
		c0.046-0.163,0.069-0.325,0.069-0.485v-0.3H185.561z"/>
	<path d="M193.04,25.658c0,0.36-0.062,0.688-0.185,0.985c-0.124,0.296-0.299,0.553-0.525,0.77s-0.5,0.385-0.819,0.505
		c-0.32,0.12-0.674,0.181-1.061,0.181c-0.453,0-0.868-0.063-1.245-0.19c-0.376-0.127-0.734-0.347-1.075-0.66l0.61-0.76
		c0.233,0.253,0.486,0.445,0.76,0.575s0.584,0.194,0.931,0.194c0.333,0,0.609-0.048,0.83-0.145c0.22-0.097,0.395-0.222,0.524-0.375
		s0.222-0.328,0.275-0.525c0.053-0.196,0.08-0.395,0.08-0.595v-0.7h-0.03c-0.174,0.287-0.408,0.499-0.705,0.636
		s-0.608,0.204-0.935,0.204c-0.347,0-0.669-0.062-0.966-0.185c-0.296-0.123-0.551-0.293-0.765-0.51
		c-0.213-0.217-0.38-0.474-0.5-0.771c-0.12-0.296-0.18-0.618-0.18-0.965s0.057-0.672,0.17-0.975
		c0.113-0.304,0.274-0.568,0.485-0.795c0.21-0.227,0.463-0.403,0.76-0.53c0.296-0.127,0.628-0.19,0.995-0.19
		c0.319,0,0.631,0.07,0.935,0.21c0.304,0.141,0.542,0.337,0.715,0.591h0.021v-0.681h0.899V25.658z M190.58,21.679
		c-0.239,0-0.456,0.041-0.649,0.125c-0.193,0.083-0.357,0.196-0.49,0.34c-0.134,0.144-0.236,0.316-0.311,0.52
		c-0.073,0.203-0.109,0.425-0.109,0.665c0,0.48,0.14,0.865,0.42,1.155s0.66,0.435,1.14,0.435c0.48,0,0.86-0.145,1.141-0.435
		c0.279-0.29,0.42-0.675,0.42-1.155c0-0.24-0.037-0.462-0.11-0.665s-0.177-0.376-0.31-0.52c-0.134-0.144-0.297-0.257-0.49-0.34
		C191.037,21.72,190.82,21.679,190.58,21.679z"/>
	<path d="M195.181,23.658c0,0.207,0.045,0.396,0.135,0.565s0.208,0.314,0.354,0.435s0.317,0.214,0.511,0.28s0.393,0.1,0.6,0.1
		c0.28,0,0.523-0.064,0.73-0.195c0.206-0.13,0.396-0.301,0.569-0.515l0.681,0.521c-0.5,0.646-1.2,0.97-2.101,0.97
		c-0.373,0-0.712-0.063-1.015-0.19c-0.304-0.126-0.561-0.301-0.771-0.524s-0.371-0.487-0.484-0.79
		c-0.113-0.304-0.17-0.632-0.17-0.985s0.062-0.682,0.185-0.985c0.123-0.303,0.293-0.566,0.51-0.789
		c0.217-0.224,0.476-0.398,0.775-0.525s0.626-0.19,0.979-0.19c0.42,0,0.775,0.074,1.065,0.221s0.528,0.338,0.715,0.574
		c0.187,0.237,0.321,0.504,0.405,0.801c0.083,0.296,0.125,0.598,0.125,0.904v0.32H195.181z M198.021,22.938
		c-0.007-0.2-0.039-0.384-0.095-0.55c-0.058-0.167-0.143-0.312-0.256-0.436c-0.113-0.123-0.255-0.22-0.425-0.29
		s-0.368-0.104-0.595-0.104c-0.22,0-0.422,0.041-0.605,0.125c-0.183,0.083-0.338,0.191-0.465,0.324
		c-0.127,0.134-0.225,0.282-0.295,0.445s-0.104,0.325-0.104,0.485H198.021z"/>
</g>
<g>
	<path fill="#FFFFFF" d="M72.631,5.976h2.114c0.396,0,0.794,0.066,1.192,0.198c0.399,0.132,0.76,0.331,1.08,0.599
		c0.321,0.267,0.581,0.6,0.779,0.999c0.197,0.398,0.297,0.862,0.297,1.391c0,0.533-0.1,0.999-0.297,1.395
		c-0.198,0.396-0.458,0.728-0.779,0.994c-0.32,0.268-0.681,0.467-1.08,0.599c-0.398,0.132-0.796,0.198-1.192,0.198h-2.114V5.976z
		 M73.278,11.754h1.26c0.486,0,0.908-0.073,1.265-0.221c0.357-0.147,0.654-0.342,0.892-0.585c0.236-0.243,0.412-0.519,0.526-0.828
		c0.113-0.309,0.171-0.628,0.171-0.958s-0.058-0.649-0.171-0.959c-0.114-0.309-0.29-0.585-0.526-0.828
		c-0.237-0.243-0.534-0.438-0.892-0.585c-0.356-0.146-0.778-0.221-1.265-0.221h-1.26V11.754z"/>
	<path fill="#FFFFFF" d="M79.731,12.348h-0.756l2.772-6.372h0.63l2.771,6.372h-0.756l-0.702-1.674h-3.258L79.731,12.348z
		 M80.677,10.08h2.763l-1.377-3.349L80.677,10.08z"/>
	<path fill="#FFFFFF" d="M87.841,12.348h-0.648V9.603l-2.385-3.627h0.81l1.899,3.006l1.899-3.006h0.81l-2.385,3.627V12.348z"/>
</g>
<g>
	<path fill="#FFFFFF" d="M99.299,5.976h2.114c0.396,0,0.794,0.066,1.192,0.198c0.399,0.132,0.76,0.331,1.08,0.599
		c0.321,0.267,0.581,0.6,0.779,0.999c0.197,0.398,0.297,0.862,0.297,1.391c0,0.533-0.1,0.999-0.297,1.395
		c-0.198,0.396-0.458,0.728-0.779,0.994c-0.32,0.268-0.681,0.467-1.08,0.599c-0.398,0.132-0.796,0.198-1.192,0.198h-2.114V5.976z
		 M99.946,11.754h1.26c0.486,0,0.908-0.073,1.265-0.221c0.357-0.147,0.654-0.342,0.892-0.585c0.236-0.243,0.412-0.519,0.526-0.828
		c0.113-0.309,0.171-0.628,0.171-0.958s-0.058-0.649-0.171-0.959c-0.114-0.309-0.29-0.585-0.526-0.828
		c-0.237-0.243-0.534-0.438-0.892-0.585c-0.356-0.146-0.778-0.221-1.265-0.221h-1.26V11.754z"/>
	<path fill="#FFFFFF" d="M106.399,12.348h-0.756l2.772-6.372h0.63l2.771,6.372h-0.756l-0.702-1.674h-3.258L106.399,12.348z
		 M107.345,10.08h2.763l-1.377-3.349L107.345,10.08z"/>
	<path fill="#FFFFFF" d="M114.509,12.348h-0.648V9.603l-2.385-3.627h0.81l1.899,3.006l1.899-3.006h0.81l-2.385,3.627V12.348z"/>
</g>
<g>
	<path fill="#FFFFFF" d="M125.966,5.976h2.114c0.396,0,0.794,0.066,1.192,0.198c0.399,0.132,0.76,0.331,1.08,0.599
		c0.321,0.267,0.581,0.6,0.779,0.999c0.197,0.398,0.297,0.862,0.297,1.391c0,0.533-0.1,0.999-0.297,1.395
		c-0.198,0.396-0.458,0.728-0.779,0.994c-0.32,0.268-0.681,0.467-1.08,0.599c-0.398,0.132-0.796,0.198-1.192,0.198h-2.114V5.976z
		 M126.613,11.754h1.26c0.486,0,0.908-0.073,1.265-0.221c0.357-0.147,0.654-0.342,0.892-0.585c0.236-0.243,0.412-0.519,0.526-0.828
		c0.113-0.309,0.171-0.628,0.171-0.958s-0.058-0.649-0.171-0.959c-0.114-0.309-0.29-0.585-0.526-0.828
		c-0.237-0.243-0.534-0.438-0.892-0.585c-0.356-0.146-0.778-0.221-1.265-0.221h-1.26V11.754z"/>
	<path fill="#FFFFFF" d="M133.066,12.348h-0.756l2.772-6.372h0.63l2.771,6.372h-0.756l-0.702-1.674h-3.258L133.066,12.348z
		 M134.012,10.08h2.763l-1.377-3.349L134.012,10.08z"/>
	<path fill="#FFFFFF" d="M141.176,12.348h-0.648V9.603l-2.385-3.627h0.81l1.899,3.006l1.899-3.006h0.81l-2.385,3.627V12.348z"/>
</g>
<g>
	<path fill="#FFFFFF" d="M152.634,5.976h2.114c0.396,0,0.794,0.066,1.192,0.198c0.399,0.132,0.76,0.331,1.08,0.599
		c0.321,0.267,0.581,0.6,0.779,0.999c0.197,0.398,0.297,0.862,0.297,1.391c0,0.533-0.1,0.999-0.297,1.395
		c-0.198,0.396-0.458,0.728-0.779,0.994c-0.32,0.268-0.681,0.467-1.08,0.599c-0.398,0.132-0.796,0.198-1.192,0.198h-2.114V5.976z
		 M153.281,11.754h1.26c0.486,0,0.908-0.073,1.265-0.221c0.357-0.147,0.654-0.342,0.892-0.585c0.236-0.243,0.412-0.519,0.526-0.828
		c0.113-0.309,0.171-0.628,0.171-0.958s-0.058-0.649-0.171-0.959c-0.114-0.309-0.29-0.585-0.526-0.828
		c-0.237-0.243-0.534-0.438-0.892-0.585c-0.356-0.146-0.778-0.221-1.265-0.221h-1.26V11.754z"/>
	<path fill="#FFFFFF" d="M159.734,12.348h-0.756l2.772-6.372h0.63l2.771,6.372h-0.756l-0.702-1.674h-3.258L159.734,12.348z
		 M160.68,10.08h2.763l-1.377-3.349L160.68,10.08z"/>
	<path fill="#FFFFFF" d="M167.844,12.348h-0.648V9.603l-2.385-3.627h0.81l1.899,3.006l1.899-3.006h0.81l-2.385,3.627V12.348z"/>
</g>
<g>
	<path fill="#FFFFFF" d="M179.302,5.976h2.114c0.396,0,0.794,0.066,1.192,0.198c0.399,0.132,0.76,0.331,1.08,0.599
		c0.321,0.267,0.581,0.6,0.779,0.999c0.197,0.398,0.297,0.862,0.297,1.391c0,0.533-0.1,0.999-0.297,1.395
		c-0.198,0.396-0.458,0.728-0.779,0.994c-0.32,0.268-0.681,0.467-1.08,0.599c-0.398,0.132-0.796,0.198-1.192,0.198h-2.114V5.976z
		 M179.949,11.754h1.26c0.486,0,0.908-0.073,1.265-0.221c0.357-0.147,0.654-0.342,0.892-0.585c0.236-0.243,0.412-0.519,0.526-0.828
		c0.113-0.309,0.171-0.628,0.171-0.958s-0.058-0.649-0.171-0.959c-0.114-0.309-0.29-0.585-0.526-0.828
		c-0.237-0.243-0.534-0.438-0.892-0.585c-0.356-0.146-0.778-0.221-1.265-0.221h-1.26V11.754z"/>
	<path fill="#FFFFFF" d="M186.402,12.348h-0.756l2.772-6.372h0.63l2.771,6.372h-0.756l-0.702-1.674h-3.258L186.402,12.348z
		 M187.348,10.08h2.763l-1.377-3.349L187.348,10.08z"/>
	<path fill="#FFFFFF" d="M194.512,12.348h-0.648V9.603l-2.385-3.627h0.81l1.899,3.006l1.899-3.006h0.81l-2.385,3.627V12.348z"/>
</g>
<line fill="none" stroke="#969696" stroke-miterlimit="10" x1="57.481" y1="7.706" x2="63.981" y2="7.706"/>
<line fill="none" stroke="#969696" stroke-miterlimit="10" x1="57.481" y1="12.441" x2="63.981" y2="12.441"/>
<polyline fill="none" stroke="#969696" stroke-miterlimit="10" points="34.439,5.5 40.439,9.932 34.439,14.5 "/>
<g>
	<path d="M44.042,10.07c0-0.347,0.064-0.67,0.194-0.97c0.131-0.3,0.309-0.563,0.535-0.79s0.493-0.405,0.801-0.535
		c0.306-0.13,0.636-0.195,0.989-0.195s0.684,0.065,0.99,0.195s0.573,0.309,0.8,0.535s0.405,0.49,0.535,0.79s0.195,0.623,0.195,0.97
		s-0.065,0.672-0.195,0.976c-0.13,0.303-0.309,0.566-0.535,0.789c-0.227,0.224-0.493,0.4-0.8,0.53s-0.637,0.195-0.99,0.195
		s-0.684-0.065-0.989-0.195c-0.308-0.13-0.574-0.307-0.801-0.53c-0.227-0.223-0.404-0.486-0.535-0.789
		C44.106,10.742,44.042,10.417,44.042,10.07z M45.002,10.07c0,0.24,0.036,0.462,0.109,0.665c0.074,0.203,0.177,0.377,0.311,0.521
		c0.133,0.143,0.297,0.256,0.49,0.34c0.193,0.083,0.41,0.125,0.649,0.125c0.24,0,0.457-0.042,0.65-0.125
		c0.193-0.084,0.356-0.197,0.49-0.34c0.133-0.144,0.236-0.317,0.31-0.521s0.11-0.425,0.11-0.665s-0.037-0.462-0.11-0.665
		s-0.177-0.376-0.31-0.52c-0.134-0.144-0.297-0.257-0.49-0.34c-0.193-0.084-0.41-0.125-0.65-0.125c-0.239,0-0.456,0.041-0.649,0.125
		c-0.193,0.083-0.357,0.196-0.49,0.34c-0.134,0.144-0.236,0.316-0.311,0.52C45.038,9.608,45.002,9.83,45.002,10.07z"/>
	<path d="M50.712,7.7h0.9v0.73h0.02c0.061-0.127,0.141-0.242,0.24-0.346c0.101-0.103,0.212-0.191,0.335-0.265
		s0.259-0.132,0.405-0.175s0.293-0.065,0.439-0.065c0.147,0,0.28,0.021,0.4,0.061l-0.04,0.97c-0.073-0.02-0.146-0.036-0.22-0.05
		s-0.146-0.021-0.22-0.021c-0.44,0-0.777,0.124-1.011,0.37c-0.233,0.247-0.35,0.63-0.35,1.15v2.38h-0.9V7.7z"/>
</g>
</svg>
