<?xml version="1.0" encoding="utf-8"?>
<!-- Generator: Adobe Illustrator 18.1.1, SVG Export Plug-In . SVG Version: 6.00 Build 0)  -->
<!DOCTYPE svg PUBLIC "-//W3C//DTD SVG 1.1//EN" "http://www.w3.org/Graphics/SVG/1.1/DTD/svg11.dtd">
<svg version="1.1" id="Layer_1" xmlns="http://www.w3.org/2000/svg" xmlns:xlink="http://www.w3.org/1999/xlink" x="0px" y="0px"
	 viewBox="0 0 35 35" enable-background="new 0 0 35 35" xml:space="preserve">
<g>
	<path fill="#969696" d="M20.37,24.094V18.25h0.88v-1.5h-0.88V5.048c0-1.625-1.321-2.947-2.945-2.947
		c-1.626,0-2.948,1.322-2.948,2.947V16.75H13.75v1.5h0.727v5.957c-1.164,0.919-1.849,2.322-1.849,3.82
		c0,2.686,2.186,4.872,4.872,4.872s4.872-2.186,4.872-4.872C22.372,26.455,21.63,25.011,20.37,24.094z M17.5,31.609
		c-1.975,0-3.583-1.608-3.583-3.583c0-1.187,0.586-2.295,1.566-2.96l0.283-0.191v-7.972v-0.422V5.048
		c0-0.913,0.744-1.656,1.659-1.656c0.912,0,1.655,0.743,1.655,1.656v11.432v0.422v7.894l0.304,0.189
		c1.063,0.66,1.698,1.798,1.698,3.041C21.083,30.001,19.475,31.609,17.5,31.609z"/>
	<rect x="10.75" y="16.75" fill="#969696" width="1.5" height="1.5"/>
	<rect x="16.75" y="16.75" fill="#969696" width="1.5" height="1.5"/>
	<rect x="22.75" y="16.75" fill="#969696" width="1.5" height="1.5"/>
</g>
</svg>
