<?xml version="1.0" encoding="utf-8"?>
<!-- Generator: Adobe Illustrator 18.1.0, SVG Export Plug-In . SVG Version: 6.00 Build 0)  -->
<!DOCTYPE svg PUBLIC "-//W3C//DTD SVG 1.1//EN" "http://www.w3.org/Graphics/SVG/1.1/DTD/svg11.dtd">
<svg version="1.1" id="Layer_1" xmlns="http://www.w3.org/2000/svg" xmlns:xlink="http://www.w3.org/1999/xlink" x="0px" y="0px"
	 viewBox="0 0 200 58.185" enable-background="new 0 0 200 58.185" xml:space="preserve">
<g>
	<g>
		
			<line fill="none" stroke="#969696" stroke-width="0.8989" stroke-miterlimit="10" x1="28.866" y1="36.338" x2="30.366" y2="36.338"/>
		
			<line fill="none" stroke="#969696" stroke-width="0.8989" stroke-miterlimit="10" stroke-dasharray="2.9897,2.9897" x1="33.355" y1="36.338" x2="193.302" y2="36.338"/>
		
			<line fill="none" stroke="#969696" stroke-width="0.8989" stroke-miterlimit="10" x1="194.797" y1="36.338" x2="196.297" y2="36.338"/>
	</g>
</g>
<line fill="none" stroke="#969696" stroke-width="0.5" stroke-miterlimit="10" x1="29.04" y1="1.701" x2="29.04" y2="56.745"/>
<line fill="none" stroke="#969696" stroke-width="0.5" stroke-miterlimit="10" x1="196.472" y1="1.701" x2="196.472" y2="56.745"/>
<path fill="none" stroke="#1253AF" stroke-width="0.8191" stroke-miterlimit="10" d="M29.04,32.018
	c46.585,23.026,89.066-20.834,128.207-15.8c17.736,2.281,35.5,12.141,39.459,12.093"/>
<g>
	<path fill="none" d="M29.04,29.092C77.125,51,118.106,8.201,157.248,13.235c17.736,2.281,35.5,12.141,39.459,12.093"/>
	<path fill="#1253AF" d="M89.126,23.258l2.108-0.706c0.427-0.143,0.816-0.22,1.171-0.23c0.354-0.011,0.676,0.025,0.966,0.108
		c0.291,0.083,0.549,0.204,0.776,0.361c0.227,0.158,0.423,0.333,0.589,0.524c0.165,0.191,0.305,0.392,0.419,0.601
		c0.114,0.208,0.202,0.406,0.266,0.594c0.129,0.387,0.184,0.785,0.162,1.194c-0.021,0.408-0.124,0.801-0.309,1.176
		s-0.454,0.717-0.81,1.025s-0.803,0.554-1.344,0.734l-1.972,0.66L89.126,23.258z M91.712,28.258l1.032-0.346
		c0.348-0.116,0.66-0.273,0.938-0.471c0.279-0.198,0.504-0.43,0.674-0.695c0.171-0.267,0.276-0.562,0.319-0.891
		c0.042-0.327,0-0.679-0.126-1.054c-0.064-0.193-0.172-0.409-0.32-0.647c-0.149-0.237-0.351-0.444-0.602-0.619
		c-0.252-0.176-0.559-0.293-0.92-0.352c-0.361-0.06-0.787-0.007-1.276,0.156l-1.229,0.412L91.712,28.258z"/>
	<path fill="#1253AF" d="M97.39,20.423l0.737-0.264l4.713,5.083l-0.949,0.339l-1.132-1.269l-2.856,1.021l-0.062,1.695l-0.949,0.339
		L97.39,20.423z M100.208,23.707l-2.104-2.354l-0.017,0.006l-0.151,3.16L100.208,23.707z"/>
	<path fill="#1253AF" d="M101.508,18.935l0.812-0.297l2.188,5.984l-0.812,0.297L101.508,18.935z"/>
	<path fill="#1253AF" d="M103.927,18.048l0.812-0.298l1.919,5.221l2.746-1.01l0.279,0.761l-3.557,1.308L103.927,18.048z"/>
	<path fill="#1253AF" d="M110.126,19.665l-3.519-2.605l1.04-0.38l2.592,2.034l0.723-3.243l0.989-0.361l-1.013,4.26l0.932,2.554
		l-0.812,0.296L110.126,19.665z"/>
	<path fill="#1253AF" d="M116.769,14.272l-1.94,0.667l-0.263-0.766l4.698-1.615l0.263,0.766l-1.94,0.667l1.809,5.26l-0.817,0.281
		L116.769,14.272z"/>
	<path fill="#1253AF" d="M120.32,12.213l3.921-1.243l0.245,0.772l-3.098,0.981l0.574,1.811l2.883-0.914l0.244,0.772l-2.883,0.913
		l0.617,1.948l3.252-1.031l0.245,0.772l-4.076,1.292L120.32,12.213z"/>
	<path fill="#1253AF" d="M125.802,10.476l1.244-0.332l3.199,4.14l0.035-0.01l0.695-5.178l1.244-0.332l1.643,6.156l-0.835,0.223
		l-1.351-5.061l-0.018,0.005l-0.728,5.615l-0.557,0.148l-3.429-4.507l-0.018,0.005l1.351,5.061l-0.835,0.223L125.802,10.476z"/>
	<path fill="#1253AF" d="M134.111,8.36l2.198-0.438c0.399-0.08,0.74-0.091,1.021-0.033c0.281,0.058,0.513,0.154,0.696,0.293
		c0.184,0.138,0.325,0.305,0.426,0.502s0.17,0.393,0.209,0.587c0.038,0.194,0.049,0.402,0.031,0.622
		c-0.017,0.221-0.084,0.431-0.2,0.628c-0.117,0.197-0.294,0.376-0.531,0.537c-0.237,0.16-0.556,0.28-0.956,0.359l-1.351,0.27
		l0.548,2.754l-0.847,0.168L134.111,8.36z M135.507,10.945l1.112-0.221c0.164-0.033,0.325-0.079,0.481-0.138
		c0.157-0.059,0.291-0.136,0.404-0.231c0.112-0.096,0.193-0.218,0.243-0.365c0.051-0.147,0.055-0.327,0.013-0.539
		s-0.115-0.377-0.218-0.494s-0.225-0.198-0.365-0.243c-0.141-0.046-0.294-0.065-0.462-0.06c-0.167,0.006-0.333,0.024-0.497,0.058
		l-1.112,0.221L135.507,10.945z"/>
	<path fill="#1253AF" d="M139.769,7.295l4.079-0.529l0.104,0.804l-3.222,0.418l0.244,1.883l2.999-0.389l0.104,0.804l-2.999,0.389
		l0.263,2.026l3.383-0.439l0.104,0.804l-4.239,0.55L139.769,7.295z"/>
	<path fill="#1253AF" d="M145.699,6.606l2.238-0.104c0.407-0.019,0.746,0.021,1.015,0.12s0.483,0.229,0.645,0.394
		c0.16,0.163,0.275,0.351,0.346,0.561c0.069,0.21,0.109,0.413,0.118,0.611c0.01,0.204-0.018,0.401-0.08,0.594
		c-0.063,0.192-0.159,0.368-0.287,0.527c-0.127,0.158-0.286,0.295-0.477,0.409c-0.189,0.114-0.404,0.188-0.643,0.224l1.941,2.82
		l-1.078,0.05l-1.749-2.73l-0.962,0.045l0.131,2.805l-0.863,0.04L145.699,6.606z M146.692,9.372l1.133-0.053
		c0.167-0.008,0.333-0.029,0.497-0.063c0.163-0.035,0.308-0.091,0.434-0.169c0.125-0.078,0.224-0.187,0.296-0.324
		c0.071-0.139,0.102-0.316,0.092-0.532c-0.01-0.215-0.057-0.389-0.141-0.521c-0.085-0.131-0.192-0.229-0.325-0.295
		c-0.132-0.066-0.281-0.109-0.447-0.128c-0.166-0.02-0.333-0.025-0.501-0.018l-1.133,0.053L146.692,9.372z"/>
	<path fill="#1253AF" d="M153.767,6.528l0.781,0.045l2.353,6.52l-1.007-0.059l-0.546-1.609l-3.028-0.176l-0.72,1.535l-1.007-0.058
		L153.767,6.528z M155.077,10.652l-1.017-2.989l-0.018-0.001l-1.374,2.85L155.077,10.652z"/>
	<path fill="#1253AF" d="M158.938,7.851l-2.029-0.302l0.119-0.802l4.914,0.731l-0.119,0.802l-2.03-0.303l-0.818,5.502l-0.854-0.128
		L158.938,7.851z"/>
	<path fill="#1253AF" d="M163.999,7.907l-0.862,3.81c-0.044,0.193-0.062,0.399-0.057,0.619s0.05,0.431,0.133,0.635
		c0.083,0.203,0.212,0.383,0.386,0.539s0.407,0.268,0.699,0.333c0.293,0.066,0.552,0.066,0.775,0c0.225-0.065,0.418-0.173,0.58-0.32
		c0.163-0.147,0.294-0.319,0.394-0.516c0.1-0.195,0.171-0.391,0.215-0.583l0.862-3.811l0.843,0.191l-0.892,3.941
		c-0.082,0.362-0.219,0.678-0.408,0.945s-0.417,0.485-0.683,0.653c-0.266,0.167-0.558,0.276-0.877,0.327s-0.648,0.038-0.987-0.039
		c-0.34-0.076-0.643-0.206-0.909-0.39c-0.266-0.183-0.482-0.407-0.65-0.673c-0.167-0.266-0.279-0.56-0.335-0.884
		c-0.057-0.323-0.043-0.666,0.039-1.029l0.892-3.941L163.999,7.907z"/>
	<path fill="#1253AF" d="M169.789,9.298l2.152,0.624c0.392,0.114,0.699,0.261,0.922,0.441c0.223,0.18,0.384,0.373,0.482,0.58
		c0.1,0.207,0.148,0.421,0.146,0.643c-0.002,0.221-0.03,0.427-0.085,0.617c-0.057,0.195-0.146,0.374-0.268,0.536
		c-0.122,0.161-0.27,0.297-0.441,0.405c-0.173,0.109-0.367,0.188-0.583,0.234c-0.217,0.047-0.443,0.048-0.681,0.004l0.928,3.296
		l-1.038-0.301l-0.773-3.148l-0.925-0.268l-0.782,2.696l-0.83-0.24L169.789,9.298z M169.837,12.235l1.089,0.316
		c0.161,0.046,0.325,0.08,0.491,0.1c0.166,0.021,0.32,0.014,0.465-0.02c0.144-0.033,0.272-0.104,0.385-0.212
		c0.112-0.107,0.199-0.266,0.259-0.473c0.061-0.208,0.071-0.387,0.034-0.538s-0.107-0.28-0.212-0.385
		c-0.104-0.105-0.23-0.194-0.382-0.266c-0.151-0.072-0.307-0.132-0.469-0.179l-1.089-0.315L169.837,12.235z"/>
	<path fill="#1253AF" d="M175.338,10.955l3.897,1.316l-0.26,0.768l-3.078-1.04l-0.607,1.8l2.865,0.968l-0.26,0.767l-2.864-0.967
		l-0.654,1.936l3.231,1.091l-0.259,0.768l-4.05-1.368L175.338,10.955z"/>
</g>
<g>
	<g>
		<path d="M2.809,38.119H0.103v-1.32h2.706V38.119z"/>
		<path d="M3.622,38.449l3.025-2.717c0.153-0.14,0.308-0.297,0.462-0.474c0.153-0.176,0.23-0.381,0.23-0.615
			c0-0.265-0.096-0.472-0.286-0.622s-0.414-0.226-0.671-0.226c-0.308,0-0.548,0.096-0.721,0.286
			c-0.172,0.191-0.27,0.426-0.291,0.704l-1.65-0.121c0.022-0.403,0.106-0.753,0.253-1.051c0.147-0.297,0.342-0.544,0.583-0.742
			c0.242-0.198,0.526-0.347,0.853-0.445s0.681-0.148,1.062-0.148c0.353,0,0.683,0.05,0.99,0.148s0.575,0.246,0.803,0.44
			s0.405,0.438,0.534,0.731c0.128,0.293,0.192,0.634,0.192,1.022c0,0.25-0.026,0.475-0.077,0.677
			c-0.052,0.202-0.123,0.385-0.215,0.55s-0.199,0.317-0.324,0.457c-0.125,0.139-0.261,0.274-0.407,0.406l-2.365,2.035h3.454v1.452
			H3.622V38.449z"/>
		<path d="M15.281,33.862H12.19l-0.032,1.199c0.168-0.059,0.399-0.088,0.692-0.088c0.396,0,0.759,0.059,1.089,0.176
			s0.614,0.288,0.853,0.512s0.424,0.494,0.556,0.813s0.198,0.677,0.198,1.072c0,0.44-0.075,0.833-0.226,1.178
			s-0.357,0.636-0.622,0.874c-0.264,0.238-0.577,0.42-0.94,0.545c-0.362,0.124-0.757,0.187-1.182,0.187
			c-0.675,0-1.24-0.165-1.694-0.495c-0.455-0.33-0.767-0.828-0.936-1.496l1.728-0.396c0.044,0.278,0.161,0.504,0.352,0.677
			c0.191,0.172,0.43,0.258,0.716,0.258c0.352,0,0.632-0.109,0.841-0.33c0.209-0.22,0.313-0.498,0.313-0.836
			c0-0.256-0.053-0.467-0.159-0.632s-0.246-0.297-0.418-0.396c-0.173-0.099-0.365-0.167-0.577-0.203
			c-0.213-0.037-0.426-0.056-0.639-0.056c-0.271,0-0.544,0.026-0.819,0.077c-0.275,0.052-0.541,0.121-0.798,0.209l0.088-4.301h4.708
			V33.862z"/>
		<path d="M18.307,36.062c-0.265,0-0.51-0.05-0.737-0.148c-0.228-0.1-0.427-0.235-0.6-0.407c-0.172-0.172-0.308-0.372-0.407-0.6
			c-0.099-0.228-0.148-0.473-0.148-0.737c0-0.264,0.05-0.51,0.148-0.736c0.1-0.228,0.235-0.428,0.407-0.6
			c0.173-0.173,0.372-0.309,0.6-0.407s0.473-0.148,0.737-0.148c0.264,0,0.51,0.05,0.736,0.148c0.228,0.099,0.428,0.234,0.6,0.407
			c0.173,0.172,0.309,0.372,0.407,0.6c0.1,0.227,0.148,0.473,0.148,0.736c0,0.265-0.049,0.51-0.148,0.737
			c-0.099,0.228-0.234,0.428-0.407,0.6c-0.172,0.172-0.372,0.308-0.6,0.407C18.816,36.013,18.57,36.062,18.307,36.062z
			 M18.307,35.139c0.271,0,0.5-0.094,0.688-0.281c0.187-0.187,0.28-0.416,0.28-0.688c0-0.271-0.094-0.5-0.28-0.688
			c-0.188-0.187-0.416-0.28-0.688-0.28s-0.501,0.094-0.688,0.28c-0.188,0.188-0.28,0.417-0.28,0.688c0,0.271,0.093,0.501,0.28,0.688
			C17.806,35.045,18.035,35.139,18.307,35.139z"/>
		<path d="M26.392,34.435c-0.169-0.205-0.376-0.363-0.621-0.474c-0.246-0.109-0.53-0.165-0.853-0.165
			c-0.323,0-0.622,0.062-0.896,0.188c-0.275,0.125-0.514,0.299-0.715,0.522c-0.202,0.224-0.359,0.489-0.474,0.798
			c-0.113,0.308-0.17,0.642-0.17,1.001c0,0.366,0.057,0.702,0.17,1.006c0.114,0.305,0.27,0.568,0.468,0.792s0.431,0.398,0.698,0.522
			c0.268,0.125,0.556,0.188,0.864,0.188c0.352,0,0.663-0.073,0.935-0.221c0.271-0.146,0.495-0.352,0.671-0.615l1.43,1.066
			c-0.33,0.462-0.748,0.804-1.254,1.023s-1.026,0.33-1.562,0.33c-0.609,0-1.17-0.096-1.684-0.286
			c-0.513-0.19-0.957-0.464-1.331-0.819c-0.373-0.355-0.665-0.787-0.874-1.293s-0.313-1.07-0.313-1.693
			c0-0.624,0.104-1.188,0.313-1.694s0.501-0.937,0.874-1.293c0.374-0.355,0.818-0.628,1.331-0.819
			c0.514-0.19,1.074-0.286,1.684-0.286c0.22,0,0.449,0.021,0.688,0.061c0.238,0.041,0.473,0.104,0.704,0.192
			c0.23,0.089,0.452,0.206,0.665,0.353s0.403,0.326,0.572,0.539L26.392,34.435z"/>
	</g>
</g>
</svg>
