<?xml version="1.0" encoding="utf-8"?>
<!-- Generator: Adobe Illustrator 18.1.0, SVG Export Plug-In . SVG Version: 6.00 Build 0)  -->
<!DOCTYPE svg PUBLIC "-//W3C//DTD SVG 1.1//EN" "http://www.w3.org/Graphics/SVG/1.1/DTD/svg11.dtd">
<svg version="1.1" id="Layer_1" xmlns="http://www.w3.org/2000/svg" xmlns:xlink="http://www.w3.org/1999/xlink" x="0px" y="0px"
	 viewBox="0 0 200 61" enable-background="new 0 0 200 61" xml:space="preserve">
<g>
	<g>
		
			<line fill="none" stroke="#969696" stroke-width="0.8989" stroke-miterlimit="10" x1="29.053" y1="16.264" x2="30.553" y2="16.264"/>
		
			<line fill="none" stroke="#969696" stroke-width="0.8989" stroke-miterlimit="10" stroke-dasharray="2.9897,2.9897" x1="33.542" y1="16.264" x2="193.489" y2="16.264"/>
		
			<line fill="none" stroke="#969696" stroke-width="0.8989" stroke-miterlimit="10" x1="194.984" y1="16.264" x2="196.484" y2="16.264"/>
	</g>
</g>
<line fill="none" stroke="#969696" stroke-width="0.5" stroke-miterlimit="10" x1="29.04" y1="3.144" x2="29.04" y2="58.748"/>
<line fill="none" stroke="#969696" stroke-width="0.5" stroke-miterlimit="10" x1="196.472" y1="3.144" x2="196.472" y2="58.748"/>
<path fill="none" stroke="#DA4A4E" stroke-miterlimit="10" d="M29.04,38.264c41.648,13.5,69.506-16.334,94.555-22.586
	c30.577-7.632,47.155,7.585,72.876,19.586"/>
<g>
	<path fill="none" d="M29.04,47.952c41.648,13.5,69.506-16.334,94.555-22.586c30.577-7.632,47.155,7.585,72.876,19.586"/>
	<path fill="#DA4A4E" d="M34.781,43.054l2.172,0.476c0.439,0.097,0.813,0.23,1.123,0.402c0.31,0.173,0.567,0.369,0.774,0.589
		c0.206,0.221,0.366,0.457,0.48,0.709c0.113,0.252,0.192,0.503,0.236,0.752c0.043,0.249,0.061,0.492,0.052,0.73
		c-0.01,0.237-0.035,0.452-0.077,0.646c-0.088,0.398-0.245,0.768-0.474,1.107c-0.228,0.34-0.517,0.624-0.868,0.851
		c-0.351,0.228-0.758,0.383-1.221,0.466c-0.464,0.082-0.974,0.062-1.53-0.06l-2.031-0.444L34.781,43.054z M34.436,48.672
		l1.063,0.233c0.357,0.078,0.707,0.104,1.048,0.077c0.34-0.027,0.651-0.11,0.935-0.252c0.282-0.141,0.526-0.341,0.73-0.6
		c0.204-0.26,0.349-0.582,0.434-0.97c0.043-0.199,0.062-0.438,0.056-0.72s-0.072-0.561-0.198-0.841
		c-0.126-0.279-0.329-0.537-0.608-0.773c-0.28-0.236-0.673-0.409-1.177-0.52l-1.266-0.277L34.436,48.672z"/>
	<path fill="#DA4A4E" d="M43.355,44.634l0.778,0.088l1.996,6.638l-1.002-0.113l-0.458-1.637l-3.014-0.34l-0.803,1.495l-1.002-0.113
		L43.355,44.634z M44.441,48.823l-0.853-3.04l-0.019-0.002l-1.525,2.771L44.441,48.823z"/>
	<path fill="#DA4A4E" d="M47.632,44.986l0.863,0.033l-0.248,6.367l-0.863-0.033L47.632,44.986z"/>
	<path fill="#DA4A4E" d="M50.11,45.066l0.863-0.019l0.117,5.562l2.924-0.062l0.018,0.81l-3.789,0.079L50.11,45.066z"/>
	<path fill="#DA4A4E" d="M55.575,48.49l-2.725-3.427l1.104-0.098l1.977,2.635l1.537-2.946l1.049-0.093l-2.08,3.853l0.239,2.708
		l-0.861,0.076L55.575,48.49z"/>
	<path fill="#DA4A4E" d="M63.133,44.535l-2.008,0.425l-0.167-0.793l4.86-1.026l0.167,0.792l-2.008,0.424l1.15,5.442l-0.846,0.179
		L63.133,44.535z"/>
	<path fill="#DA4A4E" d="M66.658,42.906l3.953-1.135l0.224,0.779l-3.123,0.896l0.523,1.825l2.906-0.834l0.224,0.778l-2.906,0.835
		l0.563,1.963l3.278-0.94l0.224,0.778l-4.109,1.18L66.658,42.906z"/>
	<path fill="#DA4A4E" d="M71.835,41.404l1.206-0.448l3.579,3.816l0.034-0.013l0.2-5.221l1.206-0.449l2.221,5.973l-0.81,0.302
		l-1.825-4.91l-0.018,0.007l-0.19,5.659l-0.54,0.2l-3.842-4.16l-0.017,0.006l1.825,4.91l-0.81,0.301L71.835,41.404z"/>
	<path fill="#DA4A4E" d="M79.492,38.453l2.052-0.901c0.373-0.164,0.703-0.249,0.989-0.253c0.286-0.005,0.534,0.04,0.743,0.135
		c0.209,0.096,0.384,0.229,0.524,0.399s0.25,0.347,0.33,0.528c0.08,0.181,0.135,0.381,0.166,0.601
		c0.03,0.219,0.01,0.438-0.062,0.655c-0.071,0.219-0.205,0.432-0.402,0.64s-0.482,0.394-0.855,0.558l-1.261,0.554l1.13,2.571
		l-0.791,0.348L79.492,38.453z M81.412,40.676l1.039-0.456c0.153-0.067,0.301-0.146,0.44-0.237c0.141-0.092,0.255-0.196,0.344-0.313
		c0.09-0.118,0.143-0.255,0.16-0.409c0.017-0.155-0.019-0.332-0.105-0.529c-0.087-0.198-0.193-0.343-0.318-0.435
		c-0.126-0.093-0.263-0.146-0.409-0.16c-0.147-0.014-0.302,0-0.464,0.042s-0.319,0.096-0.474,0.164l-1.038,0.456L81.412,40.676z"/>
	<path fill="#DA4A4E" d="M84.358,36.28l3.708-1.78l0.351,0.73l-2.93,1.406l0.822,1.712l2.727-1.31l0.351,0.73l-2.727,1.309
		l0.885,1.842l3.074-1.477l0.351,0.73l-3.854,1.851L84.358,36.28z"/>
	<path fill="#DA4A4E" d="M89.238,33.913l1.998-1.014c0.364-0.185,0.689-0.286,0.975-0.307c0.286-0.021,0.535,0.011,0.749,0.094
		c0.214,0.084,0.396,0.207,0.546,0.37c0.149,0.162,0.27,0.332,0.359,0.509c0.092,0.182,0.148,0.373,0.17,0.574
		s0.006,0.4-0.045,0.599c-0.052,0.197-0.141,0.387-0.267,0.568c-0.127,0.183-0.291,0.338-0.495,0.468l2.929,1.775l-0.964,0.488
		l-2.714-1.772l-0.859,0.436l1.27,2.505l-0.771,0.391L89.238,33.913z M91.278,36.027l1.012-0.513
		c0.149-0.076,0.292-0.164,0.427-0.263s0.244-0.209,0.326-0.332c0.083-0.122,0.128-0.261,0.137-0.417
		c0.009-0.155-0.036-0.33-0.134-0.522s-0.212-0.331-0.343-0.417c-0.13-0.085-0.27-0.13-0.417-0.136s-0.301,0.016-0.46,0.066
		c-0.16,0.051-0.314,0.114-0.464,0.189l-1.012,0.513L91.278,36.027z"/>
	<path fill="#DA4A4E" d="M95.912,30.494l0.695-0.36l5.354,4.4l-0.895,0.464l-1.292-1.104l-2.692,1.396l0.165,1.688l-0.895,0.465
		L95.912,30.494z M99.147,33.368l-2.401-2.05l-0.017,0.009l0.276,3.151L99.147,33.368z"/>
	<path fill="#DA4A4E" d="M100.692,28.933l-1.826,0.936l-0.369-0.721l4.421-2.266l0.369,0.721l-1.826,0.936l2.537,4.95l-0.77,0.395
		L100.692,28.933z"/>
	<path fill="#DA4A4E" d="M104.571,26.06l1.701,3.516c0.086,0.179,0.2,0.352,0.341,0.521c0.142,0.168,0.309,0.306,0.5,0.413
		c0.192,0.106,0.404,0.167,0.638,0.181c0.233,0.015,0.485-0.044,0.755-0.175c0.271-0.131,0.473-0.292,0.606-0.483
		s0.219-0.396,0.253-0.612c0.035-0.217,0.031-0.434-0.014-0.648c-0.044-0.215-0.109-0.412-0.195-0.59l-1.701-3.517l0.777-0.376
		l1.761,3.638c0.162,0.335,0.252,0.666,0.271,0.993c0.019,0.328-0.023,0.64-0.127,0.937s-0.264,0.564-0.481,0.803
		s-0.483,0.434-0.797,0.585c-0.312,0.152-0.631,0.239-0.953,0.262s-0.632-0.018-0.928-0.121c-0.297-0.103-0.567-0.264-0.813-0.481
		c-0.245-0.218-0.449-0.494-0.611-0.829l-1.76-3.638L104.571,26.06z"/>
	<path fill="#DA4A4E" d="M109.907,23.523l2.061-0.879c0.376-0.16,0.706-0.241,0.993-0.242c0.286-0.002,0.533,0.046,0.741,0.144
		c0.208,0.097,0.381,0.232,0.52,0.404c0.139,0.173,0.247,0.35,0.325,0.532c0.08,0.188,0.124,0.382,0.132,0.584
		s-0.021,0.4-0.085,0.594c-0.063,0.194-0.165,0.377-0.303,0.551c-0.139,0.173-0.313,0.317-0.524,0.434l2.804,1.964l-0.993,0.424
		l-2.592-1.947l-0.886,0.378l1.102,2.583l-0.795,0.339L109.907,23.523z M111.803,25.768l1.044-0.445
		c0.154-0.065,0.302-0.144,0.443-0.232c0.141-0.09,0.257-0.193,0.347-0.31c0.091-0.117,0.146-0.253,0.164-0.408
		c0.019-0.154-0.014-0.331-0.099-0.53c-0.085-0.198-0.189-0.345-0.314-0.438c-0.125-0.093-0.261-0.147-0.407-0.163
		c-0.147-0.016-0.302-0.004-0.464,0.036s-0.321,0.093-0.476,0.159l-1.043,0.444L111.803,25.768z"/>
	<path fill="#DA4A4E" d="M115.378,21.258l3.89-1.337l0.263,0.767l-3.072,1.056l0.616,1.796l2.86-0.982l0.264,0.766l-2.86,0.982
		l0.663,1.933l3.227-1.108l0.263,0.766l-4.043,1.39L115.378,21.258z"/>
</g>
<g>
	<g>
		<path d="M2.562,18.515l3.025-2.717c0.153-0.14,0.308-0.297,0.462-0.474c0.153-0.176,0.23-0.381,0.23-0.615
			c0-0.265-0.096-0.472-0.286-0.622s-0.414-0.226-0.671-0.226c-0.308,0-0.548,0.096-0.721,0.286
			c-0.172,0.191-0.27,0.426-0.291,0.704L2.66,14.73c0.022-0.403,0.106-0.753,0.253-1.051c0.147-0.297,0.342-0.544,0.583-0.742
			c0.242-0.198,0.526-0.347,0.853-0.445s0.681-0.148,1.062-0.148c0.353,0,0.683,0.05,0.99,0.148s0.575,0.246,0.803,0.44
			s0.405,0.438,0.534,0.731c0.128,0.293,0.192,0.634,0.192,1.022c0,0.25-0.026,0.475-0.077,0.677
			c-0.052,0.202-0.123,0.385-0.215,0.55S7.438,16.23,7.313,16.37c-0.125,0.139-0.261,0.274-0.407,0.406l-2.365,2.035h3.454v1.452
			H2.562V18.515z"/>
		<path d="M14.221,13.928H11.13l-0.032,1.199c0.168-0.059,0.399-0.088,0.692-0.088c0.396,0,0.759,0.059,1.089,0.176
			s0.614,0.288,0.853,0.512s0.424,0.494,0.556,0.813s0.198,0.677,0.198,1.072c0,0.44-0.075,0.833-0.226,1.178
			s-0.357,0.636-0.622,0.874c-0.264,0.238-0.577,0.42-0.94,0.545c-0.362,0.124-0.757,0.187-1.182,0.187
			c-0.675,0-1.24-0.165-1.694-0.495c-0.455-0.33-0.767-0.828-0.936-1.496l1.728-0.396c0.044,0.278,0.161,0.504,0.352,0.677
			c0.191,0.172,0.43,0.258,0.716,0.258c0.352,0,0.632-0.109,0.841-0.33c0.209-0.22,0.313-0.498,0.313-0.836
			c0-0.256-0.053-0.467-0.159-0.632s-0.246-0.297-0.418-0.396c-0.173-0.099-0.365-0.167-0.577-0.203
			c-0.213-0.037-0.426-0.056-0.639-0.056c-0.271,0-0.544,0.026-0.819,0.077c-0.275,0.052-0.541,0.121-0.798,0.209l0.088-4.301h4.708
			V13.928z"/>
		<path d="M17.246,16.128c-0.265,0-0.51-0.05-0.737-0.148c-0.228-0.1-0.427-0.235-0.6-0.407c-0.172-0.172-0.308-0.372-0.407-0.6
			c-0.099-0.228-0.148-0.473-0.148-0.737c0-0.264,0.05-0.51,0.148-0.736c0.1-0.228,0.235-0.428,0.407-0.6
			c0.173-0.173,0.372-0.309,0.6-0.407s0.473-0.148,0.737-0.148c0.264,0,0.51,0.05,0.736,0.148c0.228,0.099,0.428,0.234,0.6,0.407
			c0.173,0.172,0.309,0.372,0.407,0.6c0.1,0.227,0.148,0.473,0.148,0.736c0,0.265-0.049,0.51-0.148,0.737
			c-0.099,0.228-0.234,0.428-0.407,0.6c-0.172,0.172-0.372,0.308-0.6,0.407C17.756,16.078,17.51,16.128,17.246,16.128z
			 M17.246,15.204c0.271,0,0.5-0.094,0.688-0.281c0.187-0.187,0.28-0.416,0.28-0.688c0-0.271-0.094-0.5-0.28-0.688
			c-0.188-0.187-0.416-0.28-0.688-0.28s-0.501,0.094-0.688,0.28c-0.188,0.188-0.28,0.417-0.28,0.688c0,0.271,0.093,0.501,0.28,0.688
			C16.745,15.11,16.975,15.204,17.246,15.204z"/>
		<path d="M25.331,14.5c-0.169-0.205-0.376-0.363-0.621-0.474c-0.246-0.109-0.53-0.165-0.853-0.165
			c-0.323,0-0.622,0.062-0.896,0.188c-0.275,0.125-0.514,0.299-0.715,0.522c-0.202,0.224-0.359,0.489-0.474,0.798
			c-0.113,0.308-0.17,0.642-0.17,1.001c0,0.366,0.057,0.702,0.17,1.006c0.114,0.305,0.27,0.568,0.468,0.792s0.431,0.398,0.698,0.522
			c0.268,0.125,0.556,0.188,0.864,0.188c0.352,0,0.663-0.073,0.935-0.221c0.271-0.146,0.495-0.352,0.671-0.615l1.43,1.066
			c-0.33,0.462-0.748,0.804-1.254,1.023s-1.026,0.33-1.562,0.33c-0.609,0-1.17-0.096-1.684-0.286
			c-0.513-0.19-0.957-0.464-1.331-0.819c-0.373-0.355-0.665-0.787-0.874-1.293s-0.313-1.07-0.313-1.693
			c0-0.624,0.104-1.188,0.313-1.694s0.501-0.937,0.874-1.293c0.374-0.355,0.818-0.628,1.331-0.819
			c0.514-0.19,1.074-0.286,1.684-0.286c0.22,0,0.449,0.021,0.688,0.061c0.238,0.041,0.473,0.104,0.704,0.192
			c0.23,0.089,0.452,0.206,0.665,0.353s0.403,0.326,0.572,0.539L25.331,14.5z"/>
	</g>
</g>
</svg>
