<?xml version="1.0" encoding="utf-8"?>
<!-- Generator: Adobe Illustrator 18.1.0, SVG Export Plug-In . SVG Version: 6.00 Build 0)  -->
<!DOCTYPE svg PUBLIC "-//W3C//DTD SVG 1.1//EN" "http://www.w3.org/Graphics/SVG/1.1/DTD/svg11.dtd">
<svg version="1.1" id="Layer_1" xmlns="http://www.w3.org/2000/svg" xmlns:xlink="http://www.w3.org/1999/xlink" x="0px" y="0px"
	 viewBox="0 0 200 61.803" enable-background="new 0 0 200 61.803" xml:space="preserve">
<path fill="none" stroke="#3E79E4" stroke-width="0.9083" stroke-miterlimit="10" d="M29.04,51.5
	c53.207,8.5,88.562-18.217,124.707-13.546c25.681,3.318,37.973,11.483,42.959,12.546"/>
<g>
	<path fill="none" d="M29.04,60.121c53.207,8.5,88.562-18.217,124.707-13.546c25.681,3.318,37.973,11.483,42.959,12.546"/>
	<path fill="#3E79E4" d="M95.717,48.74l2.154-0.548c0.437-0.111,0.831-0.159,1.185-0.144c0.354,0.015,0.673,0.074,0.956,0.179
		s0.532,0.244,0.747,0.418c0.215,0.175,0.397,0.363,0.549,0.566c0.15,0.203,0.275,0.413,0.373,0.63
		c0.099,0.216,0.173,0.42,0.222,0.612c0.101,0.396,0.125,0.796,0.073,1.202c-0.051,0.406-0.183,0.789-0.395,1.149
		s-0.506,0.682-0.883,0.964c-0.378,0.281-0.842,0.492-1.395,0.633l-2.015,0.514L95.717,48.74z M97.927,53.917l1.055-0.269
		c0.354-0.09,0.679-0.224,0.971-0.4c0.293-0.176,0.534-0.391,0.724-0.644c0.189-0.252,0.317-0.54,0.384-0.863
		s0.051-0.677-0.047-1.061c-0.051-0.198-0.142-0.421-0.272-0.669c-0.132-0.249-0.316-0.47-0.555-0.663
		c-0.238-0.192-0.535-0.332-0.891-0.418c-0.356-0.086-0.785-0.065-1.285,0.062l-1.256,0.32L97.927,53.917z"/>
	<path fill="#3E79E4" d="M104.302,46.541l0.758-0.194l4.229,5.492l-0.977,0.251l-1.011-1.366l-2.938,0.755l-0.218,1.683
		l-0.977,0.251L104.302,46.541z M106.808,50.069l-1.879-2.537l-0.018,0.005l-0.44,3.133L106.808,50.069z"/>
	<path fill="#3E79E4" d="M108.634,45.435l0.837-0.211l1.561,6.178l-0.838,0.212L108.634,45.435z"/>
	<path fill="#3E79E4" d="M111.177,44.793l0.839-0.206l1.322,5.403l2.841-0.695l0.192,0.787l-3.68,0.9L111.177,44.793z"/>
	<path fill="#3E79E4" d="M117.173,47.108L114,44.091l1.079-0.249l2.322,2.337l1.115-3.131l1.025-0.236l-1.527,4.103l0.611,2.648
		l-0.842,0.194L117.173,47.108z"/>
	<path fill="#3E79E4" d="M124.523,42.627l-2.017,0.382l-0.15-0.796l4.881-0.924l0.151,0.796l-2.017,0.382l1.034,5.465l-0.849,0.16
		L124.523,42.627z"/>
	<path fill="#3E79E4" d="M128.383,41.103l4.068-0.608l0.119,0.802l-3.213,0.479l0.28,1.879l2.991-0.447l0.119,0.801l-2.99,0.447
		l0.302,2.021l3.373-0.504l0.12,0.801l-4.229,0.632L128.383,41.103z"/>
	<path fill="#3E79E4" d="M134.176,40.245l1.283-0.106l2.419,4.639l0.036-0.003l1.599-4.975l1.282-0.107l0.53,6.351l-0.86,0.071
		l-0.437-5.22l-0.018,0.002l-1.708,5.398l-0.574,0.048l-2.579-5.041l-0.018,0.002l0.436,5.22l-0.861,0.072L134.176,40.245z"/>
	<path fill="#3E79E4" d="M142.804,39.656l2.241-0.007c0.408-0.002,0.744,0.053,1.009,0.163c0.264,0.11,0.473,0.25,0.627,0.421
		c0.153,0.17,0.261,0.362,0.321,0.575s0.091,0.418,0.092,0.616c0.001,0.197-0.029,0.403-0.088,0.616
		c-0.06,0.214-0.165,0.406-0.317,0.577c-0.152,0.172-0.361,0.313-0.624,0.425c-0.264,0.112-0.6,0.169-1.008,0.17l-1.377,0.005
		l0.009,2.808l-0.863,0.003L142.804,39.656z M143.677,42.462l1.135-0.004c0.167-0.001,0.334-0.015,0.499-0.042
		s0.312-0.078,0.44-0.15s0.231-0.176,0.31-0.312c0.077-0.135,0.116-0.311,0.115-0.526s-0.04-0.392-0.119-0.526
		c-0.078-0.135-0.182-0.238-0.312-0.31c-0.129-0.071-0.276-0.12-0.441-0.146c-0.165-0.027-0.331-0.04-0.499-0.039l-1.135,0.004
		L143.677,42.462z"/>
	<path fill="#3E79E4" d="M148.576,39.709l4.103,0.296l-0.058,0.808l-3.241-0.233l-0.136,1.895l3.016,0.217l-0.059,0.809
		l-3.016-0.218l-0.146,2.038l3.401,0.245l-0.058,0.808l-4.265-0.308L148.576,39.709z"/>
	<path fill="#3E79E4" d="M154.473,40.231l2.22,0.312c0.403,0.058,0.729,0.159,0.975,0.306c0.246,0.147,0.433,0.315,0.561,0.507
		c0.127,0.19,0.206,0.396,0.235,0.614c0.03,0.22,0.031,0.428,0.003,0.623c-0.028,0.202-0.091,0.392-0.188,0.569
		c-0.098,0.177-0.225,0.332-0.38,0.464c-0.154,0.133-0.336,0.238-0.544,0.314c-0.208,0.077-0.432,0.11-0.673,0.101l1.386,3.131
		l-1.069-0.15l-1.213-3.007l-0.953-0.135l-0.392,2.781l-0.856-0.121L154.473,40.231z M154.937,43.133l1.123,0.158
		c0.166,0.023,0.333,0.033,0.5,0.029s0.319-0.032,0.457-0.085c0.139-0.054,0.255-0.142,0.352-0.265
		c0.096-0.123,0.159-0.291,0.189-0.505c0.029-0.214,0.016-0.393-0.043-0.538c-0.059-0.145-0.146-0.261-0.264-0.351
		c-0.118-0.089-0.257-0.158-0.416-0.208c-0.16-0.05-0.323-0.087-0.489-0.11l-1.123-0.158L154.937,43.133z"/>
	<path fill="#3E79E4" d="M162.134,41.422l0.771,0.141l1.536,6.759l-0.991-0.181l-0.346-1.665l-2.983-0.545l-0.903,1.436
		l-0.991-0.181L162.134,41.422z M162.93,45.676l-0.643-3.091l-0.018-0.004l-1.712,2.661L162.93,45.676z"/>
	<path fill="#3E79E4" d="M166.953,43.204l-2.004-0.442l0.175-0.791l4.852,1.07l-0.175,0.791l-2.004-0.442l-1.198,5.432l-0.844-0.186
		L166.953,43.204z"/>
	<path fill="#3E79E4" d="M171.875,43.524l-1.013,3.772c-0.051,0.19-0.078,0.396-0.081,0.616s0.032,0.433,0.107,0.64
		c0.075,0.206,0.196,0.391,0.364,0.554c0.167,0.163,0.396,0.283,0.686,0.361c0.29,0.077,0.548,0.088,0.774,0.03
		c0.227-0.057,0.424-0.156,0.593-0.297c0.168-0.142,0.306-0.308,0.413-0.5c0.107-0.191,0.187-0.383,0.238-0.574l1.013-3.772
		l0.834,0.224l-1.047,3.903c-0.097,0.359-0.245,0.669-0.445,0.929s-0.437,0.469-0.708,0.625c-0.272,0.157-0.568,0.255-0.89,0.293
		c-0.32,0.038-0.649,0.012-0.985-0.078s-0.634-0.232-0.892-0.426c-0.259-0.193-0.467-0.427-0.624-0.698
		c-0.156-0.272-0.257-0.57-0.3-0.896c-0.043-0.325-0.017-0.667,0.08-1.026l1.047-3.903L171.875,43.524z"/>
	<path fill="#3E79E4" d="M177.565,45.111l2.134,0.685c0.389,0.125,0.691,0.28,0.909,0.467c0.217,0.187,0.373,0.385,0.466,0.595
		c0.094,0.209,0.137,0.425,0.128,0.646c-0.008,0.222-0.042,0.426-0.103,0.614c-0.062,0.194-0.156,0.371-0.283,0.528
		c-0.126,0.158-0.276,0.289-0.452,0.394c-0.175,0.104-0.372,0.177-0.59,0.218c-0.218,0.04-0.444,0.035-0.68-0.016l0.833,3.321
		l-1.028-0.331l-0.684-3.168l-0.917-0.295l-0.858,2.674l-0.822-0.265L177.565,45.111z M177.53,48.049l1.079,0.347
		c0.16,0.052,0.322,0.09,0.488,0.114c0.165,0.024,0.32,0.022,0.465-0.007c0.146-0.029,0.275-0.096,0.391-0.2
		c0.116-0.105,0.207-0.26,0.272-0.466c0.066-0.206,0.083-0.385,0.05-0.537s-0.1-0.282-0.201-0.391
		c-0.101-0.107-0.226-0.2-0.374-0.276c-0.149-0.076-0.304-0.14-0.463-0.191l-1.08-0.347L177.53,48.049z"/>
	<path fill="#3E79E4" d="M183.073,46.926l3.855,1.433l-0.282,0.76l-3.045-1.132l-0.662,1.78l2.835,1.053l-0.282,0.76l-2.835-1.054
		l-0.712,1.915l3.197,1.188l-0.282,0.759l-4.007-1.489L183.073,46.926z"/>
</g>
<g>
	<g>
		<path d="M5.642,31.406c0-0.463,0.042-0.932,0.126-1.408s0.234-0.909,0.451-1.298c0.216-0.389,0.512-0.706,0.886-0.952
			c0.374-0.245,0.851-0.368,1.43-0.368s1.056,0.123,1.43,0.368c0.374,0.246,0.67,0.563,0.886,0.952
			c0.217,0.389,0.367,0.821,0.451,1.298s0.127,0.945,0.127,1.408c0,0.462-0.043,0.931-0.127,1.407
			c-0.084,0.478-0.234,0.91-0.451,1.298c-0.216,0.39-0.512,0.706-0.886,0.952c-0.374,0.245-0.851,0.368-1.43,0.368
			s-1.056-0.123-1.43-0.368c-0.374-0.246-0.67-0.562-0.886-0.952c-0.217-0.388-0.367-0.82-0.451-1.298
			C5.684,32.337,5.642,31.868,5.642,31.406z M7.291,31.406c0,0.205,0.01,0.45,0.027,0.736c0.019,0.286,0.068,0.562,0.149,0.825
			c0.08,0.264,0.203,0.488,0.368,0.671c0.165,0.184,0.397,0.275,0.698,0.275c0.293,0,0.524-0.092,0.693-0.275
			c0.168-0.183,0.293-0.407,0.374-0.671c0.08-0.264,0.13-0.539,0.148-0.825c0.018-0.286,0.027-0.531,0.027-0.736
			c0-0.206-0.01-0.451-0.027-0.737c-0.019-0.286-0.068-0.562-0.148-0.825c-0.081-0.264-0.206-0.487-0.374-0.671
			c-0.169-0.184-0.4-0.275-0.693-0.275c-0.301,0-0.533,0.092-0.698,0.275s-0.288,0.407-0.368,0.671
			c-0.081,0.264-0.131,0.539-0.149,0.825C7.301,30.955,7.291,31.2,7.291,31.406z"/>
		<path d="M13.99,31.164c-0.265,0-0.51-0.05-0.737-0.148c-0.228-0.1-0.427-0.235-0.6-0.407c-0.172-0.172-0.308-0.372-0.407-0.6
			c-0.099-0.228-0.148-0.473-0.148-0.737c0-0.264,0.05-0.51,0.148-0.736c0.1-0.228,0.235-0.428,0.407-0.6
			c0.173-0.173,0.372-0.309,0.6-0.407s0.473-0.148,0.737-0.148c0.264,0,0.51,0.05,0.736,0.148c0.228,0.099,0.428,0.234,0.6,0.407
			c0.173,0.172,0.309,0.372,0.407,0.6c0.1,0.227,0.148,0.473,0.148,0.736c0,0.265-0.049,0.51-0.148,0.737
			c-0.099,0.228-0.234,0.428-0.407,0.6c-0.172,0.172-0.372,0.308-0.6,0.407C14.5,31.114,14.254,31.164,13.99,31.164z M13.99,30.24
			c0.271,0,0.5-0.094,0.688-0.281c0.187-0.187,0.28-0.416,0.28-0.688c0-0.271-0.094-0.5-0.28-0.688
			c-0.188-0.187-0.416-0.28-0.688-0.28s-0.501,0.094-0.688,0.28c-0.188,0.188-0.28,0.417-0.28,0.688c0,0.271,0.093,0.501,0.28,0.688
			C13.489,30.146,13.719,30.24,13.99,30.24z"/>
		<path d="M22.075,29.536c-0.169-0.205-0.376-0.363-0.621-0.474c-0.246-0.109-0.53-0.165-0.853-0.165
			c-0.323,0-0.622,0.062-0.896,0.188c-0.275,0.125-0.514,0.299-0.715,0.522c-0.202,0.224-0.359,0.489-0.474,0.798
			c-0.113,0.308-0.17,0.642-0.17,1.001c0,0.366,0.057,0.702,0.17,1.006c0.114,0.305,0.27,0.568,0.468,0.792s0.431,0.398,0.698,0.522
			c0.268,0.125,0.556,0.188,0.864,0.188c0.352,0,0.663-0.073,0.935-0.221c0.271-0.146,0.495-0.352,0.671-0.615l1.43,1.066
			c-0.33,0.462-0.748,0.804-1.254,1.023s-1.026,0.33-1.562,0.33c-0.609,0-1.17-0.096-1.684-0.286
			c-0.513-0.19-0.957-0.464-1.331-0.819c-0.373-0.355-0.665-0.787-0.874-1.293s-0.313-1.07-0.313-1.693
			c0-0.624,0.104-1.188,0.313-1.694s0.501-0.937,0.874-1.293c0.374-0.355,0.818-0.628,1.331-0.819
			c0.514-0.19,1.074-0.286,1.684-0.286c0.22,0,0.449,0.021,0.688,0.061c0.238,0.041,0.473,0.104,0.704,0.192
			c0.23,0.089,0.452,0.206,0.665,0.353s0.403,0.326,0.572,0.539L22.075,29.536z"/>
	</g>
</g>
<g>
	<g>
		<line fill="none" stroke="#969696" stroke-width="0.8989" stroke-miterlimit="10" x1="29.04" y1="31.5" x2="30.54" y2="31.5"/>
		
			<line fill="none" stroke="#969696" stroke-width="0.8989" stroke-miterlimit="10" stroke-dasharray="2.9897,2.9897" x1="33.53" y1="31.5" x2="193.477" y2="31.5"/>
		
			<line fill="none" stroke="#969696" stroke-width="0.8989" stroke-miterlimit="10" x1="194.972" y1="31.5" x2="196.472" y2="31.5"/>
	</g>
</g>
<line fill="none" stroke="#969696" stroke-width="0.5" stroke-miterlimit="10" x1="29.04" y1="3.54" x2="29.04" y2="59.804"/>
<line fill="none" stroke="#969696" stroke-width="0.5" stroke-miterlimit="10" x1="196.472" y1="3.208" x2="196.472" y2="59.472"/>
</svg>
